<svg fill="none" height="1800" viewBox="0 0 2140 1800" width="2140" xmlns="http://www.w3.org/2000/svg" xmlns:xlink="http://www.w3.org/1999/xlink"><clipPath id="a"><path d="m0 0h2140v1800h-2140z"/></clipPath><clipPath id="b"><path d="m0 0h1473.25v1393.62h-1473.25z" transform="matrix(-1 0 0 1 2274.25 223)"/></clipPath><clipPath id="c"><path d="m-15 227h1473.25v1393.62h-1473.25z"/></clipPath><g clip-path="url(#a)"><g stroke="#5882af" stroke-linecap="round" stroke-linejoin="round" stroke-width="3"><path d="m1716.24 1323.12v89.06h-529.64v-469.73h472.18"/><path d="m1580.59 1412.17h-229.39v44.29h229.39z"/><path d="m1716.34 880.84h-57.56v442.27h57.56z"/><path d="m1465.9 974.01h-32.22v134.51h32.22z"/><path d="m1529.05 974.01h-32.22v134.51h32.22z"/><path d="m1592.19 974.01h-32.22v134.51h32.22z"/><path d="m1863.26 774.3h-220.59v106.53h220.59z"/><path d="m1716.24 354.18h-57.46v339.36h57.46z"/><path d="m1597.88 677.22h60.9v-42.95h-60.9"/><path d="m1241.65 1495.7v-83.52h33.51v83.52"/><path d="m1523.89 1456.47h-125.44v27.49h125.44z"/><path d="m1258.41 1617.13c34.16 0 61.86-27.7 61.86-61.86s-27.7-61.86-61.86-61.86-61.86 27.7-61.86 61.86 27.7 61.86 61.86 61.86z"/><path d="m1258.41 1581.04c14.23 0 25.77-11.54 25.77-25.77s-11.54-25.77-25.77-25.77-25.77 11.54-25.77 25.77 11.54 25.77 25.77 25.77z"/><path d="m1682.83 1495.7v-83.52h33.51v83.52"/><path d="m1699.59 1617.13c34.16 0 61.86-27.7 61.86-61.86s-27.7-61.86-61.86-61.86-61.86 27.7-61.86 61.86 27.7 61.86 61.86 61.86z"/><path d="m1699.59 1581.04c14.23 0 25.77-11.54 25.77-25.77s-11.54-25.77-25.77-25.77-25.77 11.54-25.77 25.77 11.54 25.77 25.77 25.77z"/><path d="m1554.82 703.85c26.57 0 48.11-21.54 48.11-48.11s-21.54-48.11-48.11-48.11-48.11 21.54-48.11 48.11 21.54 48.11 48.11 48.11z"/><path d="m1576.08 612.58-95.47-123.39c-3.96-5.097-9.74-8.463-16.13-9.395s-12.89.643-18.14 4.395c-2.74 1.968-5.05 4.47-6.8 7.355-1.75 2.886-2.9 6.095-3.37 9.436-.48 3.34-.27 6.742.61 10 .87 3.258 2.4 6.306 4.48 8.959l79.93 101.44"/><path d="m1435.91 510.55 42.14 178.14c1.39 5.88 4.35 11.272 8.57 15.598s9.54 7.424 15.38 8.962l153.35 40.43v20.62"/><path d="m1584.56 693.54 105.82 27.1c6.19 1.595 11.67 5.203 15.59 10.255 3.91 5.053 6.03 11.264 6.03 17.655v25.75"/><path d="m374.54 1041.26h433.15c6.776 0 13.275 2.69 18.067 7.48 4.791 4.79 7.483 11.29 7.483 18.07v367.51h-484.24v-367.51c0-6.77 2.69-13.27 7.48-18.06 4.789-4.79 11.285-7.49 18.06-7.49z"/><path d="m807.69 1570.38h-433.15c-6.776 0-13.275-2.69-18.067-7.48-4.791-4.8-7.483-11.29-7.483-18.07v-110.51h484.24v110.51c0 6.77-2.691 13.27-7.48 18.06s-11.285 7.49-18.06 7.49z"/><path d="m905.49 1337.52h-72.25v132.7h72.25z"/><path d="m787.94 1570.38h-72.25v55.73h72.25z"/><path d="m466.62 1570.38h-72.25v55.73h72.25z"/><path d="m349 1337.52h-72.25v132.7h72.25z"/><path d="m1072.55 173.89h-561.37v526.49h561.37z"/><path d="m1035.19 208.92h-486.66v456.42h486.66z"/><path d="m865.28 423.52h-62.28v-59.8h-27.22v59.8h-57.32v27.22h57.32v59.81h27.22v-59.81h62.28z"/><path d="m612.22 936.91-21.1-20.43"/><path d="m920.82 866.84 19-22.39"/><path d="m997.35 1118.02-22.39-19.01"/><path d="m1198.25 441.38 19-22.39"/><path d="m1286.36 793.31-22.39-19.01"/><path d="m1540.24 339.52-22.39-19.01"/></g><g clip-path="url(#b)"><path d="m1423.13 909.441c-18.13 109.549-36.27 219.109-54.4 328.659-2.05 12.29-.84 24.9 3.52 36.57 30.67 81.73 61.31 163.47 91.94 245.21h115.53c-33.7-89.33-67.4-178.67-101.09-268l40.74-261.799 25.26-1.24c45.63 176.879 91.26 353.749 136.9 530.619h114.72l-157.38-619.999z" fill="#903600"/><path d="m1286.2 546.401-22 12.41c-4.3 2.42-7.7 6.155-9.71 10.657-2.01 4.501-2.52 9.529-1.46 14.343l13.33 60.07c.4 1.829.95 3.621 1.65 5.36l7.88 19.68 52.06-11.71c-1.1-7.373-2.2-14.747-3.29-22.12l-13.53-44.42-13.69 3.16 4 25.24-8.86 1.94-4.29-15.28c-3.89-12.2-4.79-19.41-8.68-31.61 5.54-4.06 8.08-13.13 13.62-17.19z" fill="#fe9a94"/><path d="m1264.06 672.231c14 82.77 23.89 141.32 37.89 224.09 1.37 8.152 4.34 15.952 8.74 22.952 4.4 6.999 10.14 13.059 16.89 17.832 6.75 4.772 14.38 8.163 22.44 9.976 8.07 1.814 16.42 2.014 24.56.59l.63-.11 50.85-214.59-94.53-81.65-1.83 12.42-.25-9.74z" fill="#9dc5bb"/><path d="m1327.79 676.671 104.46 273.329 217.71-59.879-124.37-308.79c-60.82 21.42-122.34 40.93-183.13 62.34-.11.031-.22.071-.32.12-3.14 1.157-6.02 2.939-8.46 5.238s-4.39 5.067-5.73 8.139-2.05 6.384-2.07 9.736c-.03 3.351.62 6.674 1.91 9.767z" fill="#000"/><path clip-rule="evenodd" d="m1447.89 606.841 133.18 272.23c6.5 108.889 13 217.769 19.51 326.649-18.65-72.29-37.3-144.59-55.95-216.879l-25.26 1.24-40.74 261.799 5.17 13.72 120.22-2.38c1.2 20.15 2.4 40.3 3.61 60.45l201-45.09c-46.25-149.46-92.5-298.922-138.73-448.389l-145.65-250.52zm-29.64 332.159-90.46-262.329c-1.29-3.093-1.94-6.414-1.91-9.765s.73-6.661 2.07-9.732 3.29-5.838 5.73-8.137c2.44-2.298 5.31-4.079 8.46-5.236l103.83 295.199-13.72 7z" fill="#9dc5bb" fill-rule="evenodd"/><path clip-rule="evenodd" d="m1443.57 606.53c-.44-1.307.25-2.728 1.56-3.175s2.73.25 3.17 1.557l17.37 50.8c.01.019.02.038.02.057l5.75-1.964c5.27-1.8 11.04-1.436 16.04 1.011s8.82 6.777 10.63 12.042v.005l21.72 63.54c1.8 5.277 1.43 11.053-1.03 16.058-2.45 5.006-6.8 8.831-12.07 10.635-1.31.447-2.73-.25-3.18-1.556-.44-1.307.25-2.728 1.56-3.175 4.02-1.375 7.33-4.291 9.2-8.106 1.88-3.816 2.16-8.218.78-12.24l-21.7-63.535-.01-.002c-1.38-4.011-4.29-7.311-8.1-9.175-3.81-1.865-8.21-2.142-12.22-.77l-18.18 6.209c-4.02 1.377-7.33 4.294-9.2 8.109s-2.15 8.217-.77 12.238l21.7 63.499.01.001c1.37 4.02 4.28 7.33 8.1 9.202 3.81 1.872 8.21 2.153 12.23.78 1.31-.446 2.73.251 3.18 1.558.44 1.307-.26 2.728-1.56 3.174-5.28 1.801-11.05 1.433-16.06-1.023-5-2.456-8.82-6.8-10.63-12.074v-.001l-21.71-63.499v-.001c-1.8-5.275-1.43-11.05 1.02-16.055 2.46-5.005 6.8-8.832 12.07-10.638v-.001l7.7-2.631c0-.018-.01-.036-.02-.054zm-74.58 25.499c-.44-1.306.25-2.727 1.56-3.174s2.73.251 3.17 1.557l28.04 82.02c.15.426.17.865.09 1.278l2.99-1.02c8.36-2.858 17.46 1.603 20.31 9.965l3.25 9.5c2.86 8.362-1.6 17.457-9.96 20.315l-9.5 3.247c-8.37 2.858-17.46-1.603-20.32-9.965l-3.25-9.5c-2.85-8.362 1.61-17.457 9.97-20.315l2.4-.822c-.31-.278-.56-.639-.71-1.066zm51.43 92.243c-1.96-5.749-8.22-8.816-13.96-6.851l-9.5 3.247c-5.75 1.965-8.82 8.218-6.86 13.966l3.25 9.501c1.97 5.748 8.22 8.816 13.97 6.851l9.5-3.247c5.75-1.965 8.81-8.218 6.85-13.967z" fill="#fff" fill-rule="evenodd"/><path d="m1306.69 789.28 106.13-56.407c6.71-3.569 15.05-1.019 18.62 5.696l85.32 160.526c3.57 6.716 1.01 15.053-5.7 18.622l-106.13 56.408c-6.72 3.569-15.05 1.018-18.62-5.697l-85.32-160.526c-3.57-6.716-1.02-15.053 5.7-18.622z" fill="#6320ee"/><path d="m1593.68 856.021c-37.78 11.33-171.51 58.21-195.66 65-6.61 1.865-13.68 1.127-19.76-2.063-6.08-3.191-10.7-8.59-12.92-15.087l-4.17-12.2c-1.48-4.346-1.41-9.068.18-13.372 1.59-4.305 4.62-7.93 8.57-10.268l25.28-14.89 15.51-14c9.13-8.235 21.02-12.746 33.31-12.64l32.4.27c7-1.34 110-35.51 116.93-36.85z" fill="#fe9a94"/><path clip-rule="evenodd" d="m1438.63 838.503c-.45-1.307-1.87-2.004-3.18-1.558l-41.54 14.19c-1.3.447-2 1.868-1.55 3.174.44 1.307 1.86 2.004 3.17 1.558l41.54-14.19c1.31-.447 2-1.868 1.56-3.174zm-34 36.259c-.44-1.306-1.86-2.003-3.17-1.557l-41.54 14.2c-1.31.447-2 1.868-1.56 3.174.45 1.307 1.87 2.004 3.18 1.557l41.54-14.2c1.3-.446 2-1.867 1.55-3.174zm2.15 14.023c1.31-.446 2.73.251 3.17 1.558.45 1.306-.25 2.727-1.55 3.174l-41.54 14.19c-1.31.446-2.73-.251-3.18-1.558-.44-1.307.25-2.728 1.56-3.174z" fill="#000" fill-rule="evenodd"/><path d="m1736.85 739.931c-12.37-22.44-25-38.65-46.09-56.32-28.7-24.085-55.61-50.227-80.51-78.22-11.14-12.511-25.72-21.46-41.92-25.728-16.2-4.269-33.3-3.668-49.16 1.728l-71.29 25.43 181.81 160.85c-33 12.69-114.27 41.88-147.27 54.57l38.83 76.56 176.44-58.19c41.44-14.17 60.32-62.33 39.16-100.68z" fill="#9dc5bb"/><g clip-rule="evenodd" fill-rule="evenodd"><path d="m1328.8 651.587c-1.33.359-2.12 1.731-1.76 3.064l17.47 64.84c.36 1.334 1.73 2.123 3.06 1.764 1.34-.359 2.12-1.731 1.77-3.064l-17.47-64.84c-.36-1.334-1.74-2.123-3.07-1.764z" fill="#000"/><path d="m1592.3 1570.48 85.54-51.03h119.3l25.11 97.4h-218-41-218c0-7.57 1.63-15.06 4.78-21.94 3.14-6.89 7.74-13.02 13.46-17.98l98.35-57.48h117.3z" fill="#000"/><path d="m1311.67 499.551-.28.156c-7.23 4.085-23.86 13.477-27.37 30.714-2 10 1.56 18.27 8.84 34.44 12.13 27 19.59 43.54 36.82 49.84 13.98 5.104 27.16.85 36.42-2.14l.03-.01c3.9-1.259 7.7-2.813 11.36-4.65.4-.2.79-.403 1.18-.611l10.58 20.21 50-16.5-28.33-53.8 4.35-4.809c2.9-3.11 4.9-6.95 5.79-11.11 1.7-8.56-2.18-15.42-10.52-18.62-3.13-1.142-6.44-1.615-9.74-1.402-2.86-5.303-7.59-14.053-13.24-24.508-9.02-3.26-44.25-14.87-75.89 2.8z" fill="#fe9a94"/><path d="m1288.48 545.367c.88-.402 1.76-.799 2.62-1.192 8.97-4.071 17.13-7.773 26.63-12.294 8.41-4.002 13.79-6.865 17.85-9.02 4.94-2.627 7.91-4.203 11.95-5.51 11.18-3.61 28.71-5.36 54.77 5.57l-14.74-26.15c-2.21-3.69-8.74-13.43-21.1-17.72-15.21-5.28-33.07-.16-45.61 13-24.44-14.39-51-5.62-58 9.88-4.81 10.69-1.29 26.86 9 36.56 3.46 3.196 7.53 5.637 11.96 7.176-.17.552-.15 1.165.1 1.736l3.99 9.12c.11.247.25.469.42.66-5.05 4.105-8.28 10.369-8.28 17.388 0 12.365 10.02 22.39 22.39 22.39s22.39-10.025 22.39-22.39c0-.609-.02-1.211-.07-1.807 3.87 3.214 8.85 5.147 14.28 5.147 12.37 0 22.39-10.024 22.39-22.39s-10.02-22.39-22.39-22.39c-12.36 0-22.39 10.024-22.39 22.39 0 .608.03 1.211.07 1.807-3.87-3.215-8.85-5.147-14.28-5.147-3.57 0-6.95.838-9.95 2.328l-3.99-9.11c0-.011-.01-.022-.01-.032zm50.55-7.236c9.61 0 17.39 7.786 17.39 17.39s-7.78 17.39-17.39 17.39c-9.6 0-17.39-7.786-17.39-17.39s7.79-17.39 17.39-17.39zm-4.12 17.39c0 2.275 1.84 4.12 4.12 4.12 2.27 0 4.12-1.845 4.12-4.12 0-2.276-1.85-4.12-4.12-4.12-2.28 0-4.12 1.844-4.12 4.12zm-38.22 19.45c0 2.275 1.84 4.12 4.12 4.12s4.12-1.845 4.12-4.12-1.84-4.12-4.12-4.12-4.12 1.845-4.12 4.12zm23.13-.4c0-9.605-7.79-17.39-17.39-17.39s-17.39 7.785-17.39 17.39c0 9.604 7.79 17.39 17.39 17.39s17.39-7.786 17.39-17.39z" fill="#000"/></g></g><g clip-path="url(#c)"><path clip-rule="evenodd" d="m915.211 390.14.103-.004c8.181-.313 27.508-1.051 39.597 11.934 6.93 7.46 8.18 16.41 10.4 34l.021.174c3.688 29.237 5.956 47.224-5.471 61.556-9.245 11.63-22.724 14.879-32.182 17.158l-.048.012c-3.986.954-8.037 1.605-12.12 1.95-.513.043-1.025.078-1.536.108l2.095 30.482-51.5 5.54-4.268-62.064-5.952-1.756c-4.096-1.146-7.807-3.378-10.74-6.46-5.91-6.42-6.17-14.31-.72-21.38 2.089-2.619 4.695-4.761 7.642-6.302-.03-.555-.061-1.143-.094-1.763-.326-6.097-.815-15.246-1.377-25.975 5.94-7.52 29.94-35.8 66.15-37.21z" fill="#fe9a94" fill-rule="evenodd"/><path clip-rule="evenodd" d="m915.93 401.22 45.44 15.63c6.96-1.73 10.29-9.06 8.15-14.26-1.819-4.314-4.584-10.181-9.23-9.58 1.732-5.026 3.462-10.049 5.19-15.07l-83 11c-9.524.656-18.397 5.068-24.667 12.266-6.271 7.197-9.427 16.59-8.773 26.114.346 10 .7 20 1.06 30 15.649-9.657 30.327-20.806 43.83-33.29 7.748-7.192 15.092-14.807 22-22.81zm47.331 47.89c2.275 0 4.12-1.844 4.12-4.12 0-2.275-1.845-4.12-4.12-4.12-2.276 0-4.12 1.845-4.12 4.12 0 2.276 1.844 4.12 4.12 4.12zm-43.901 1.39c2.276 0 4.12-1.845 4.12-4.12 0-2.276-1.844-4.12-4.12-4.12-2.275 0-4.12 1.844-4.12 4.12 0 2.275 1.845 4.12 4.12 4.12z" fill="#000" fill-rule="evenodd"/><path d="m984.71 869.83c-9.89 216.77-1.78 435.55-11.67 652.32l-115.46 1c15.16-189.3 12.33-379.6 27.49-568.89l-13.64.22c-44.55 189.68-72.1 379.36-116.66 569l-114.69 2 129.01-647.48z" fill="#ea9027"/><path d="m628.369 464c21-33.4 90.74-156.75 104.42-177.79 3.74-5.758 9.546-9.861 16.221-11.465 6.676-1.604 13.712-.586 19.659 2.845l11.17 6.44c3.975 2.296 7.039 5.89 8.678 10.178s1.753 9.01.322 13.372c-3.073 9.28-6.147 18.563-9.22 27.85l-2.45 20.76c-1.444 12.21-7.418 23.433-16.74 31.45l-24.56 21.12c-4.36 5.6-59.38 99.15-63.74 104.75z" fill="#fe9a94"/><path clip-rule="evenodd" d="m769.356 278.268c.689-1.197.278-2.725-.919-3.414-1.196-.69-2.725-.278-3.414.918l-21.91 38.04c-.689 1.197-.277 2.725.919 3.414s2.725.278 3.414-.918zm13.353 4.806c1.197.689 1.608 2.218.918 3.414l-21.91 38.03c-.689 1.197-2.217 1.608-3.414.918-1.196-.689-1.607-2.217-.918-3.414l21.91-38.03c.689-1.196 2.218-1.607 3.414-.918zm-1.711 49.67c1.196.689 1.608 2.217.919 3.414l-21.91 38.04c-.689 1.196-2.218 1.608-3.414.918-1.197-.689-1.608-2.217-.919-3.414l21.91-38.04c.689-1.196 2.218-1.607 3.414-.918z" fill="#000" fill-rule="evenodd"/><path clip-rule="evenodd" d="m1208 547.24c-20.07 15.94-37.92 26.05-64.23 34.22-35.76 11.163-70.67 24.919-104.43 41.16-15.1 7.244-32.01 9.875-48.599 7.563-3.54-.494-7.033-1.208-10.458-2.133.137 80.776.269 161.549.397 242.32l-214.77 19.15c3.645-54.665 7.018-109.102 10.39-163.54 1.29-20.821 2.58-41.643 3.885-62.477-60.837-5.499-93.009-6.271-111.345-5.783-11.881.419-23.774-.327-35.51-2.23-12.372-2.119-24.516-5.403-36.27-9.81-41.17-14.93-58.68-63.61-36.82-101.45l94.45-160 79.65 32c-8.15 15.451-22.529 41.722-36.976 68.115-14.762 26.971-29.594 54.071-37.924 69.885l212.802-1.81c3.552-.418 6.971-.821 10.26-1.208l.01-.001c19.113-2.251 33.837-3.986 44.878-5.259l192.4-65.652c-12.74-12.17-34.96-32.739-57.22-53.337-22.4-20.734-44.83-41.498-57.66-53.753l65.34-55.67 140.38 121.67c32.83 29.07 31.69 80.79-2.63 108.03z" fill="#000" fill-rule="evenodd"/><path d="m1036.35 296.24c-9.68-2.14-17.67 3.73-30.63 13.27-11.38 8.37-17.19 12.64-18.4 20.38-2 12.66 10.18 23 13 25.26 12.26 9.74 26.85 8.29 28.49 7.16l24.94-17.2c14-9.68 1.83-29.69 1-31.43-1.19-2.68-6.75-14.88-18.4-17.44z" fill="#fe9a94"/><g clip-rule="evenodd" fill-rule="evenodd"><path d="m1033.72 320.568c-.81-1.116-2.38-1.361-3.49-.549-1.12.813-1.36 2.377-.55 3.493l17.66 24.25c.81 1.116 2.37 1.362 3.49.549s1.36-2.376.55-3.493zm-15.44 11.241c-.81-1.116-2.37-1.363-3.49-.551-1.12.813-1.36 2.376-.55 3.493l17.65 24.26c.81 1.116 2.37 1.363 3.49.551 1.12-.813 1.36-2.376.55-3.493z" fill="#000"/><path d="m1073.64 1580.25-98.369-57.46-117.29-.02-5.247 56.15-97.734-55.24-115.3.69-24.54 97.54 259-1.5c0-.08-.001-.17-.002-.25h217.722c0-7.57-1.63-15.05-4.78-21.94-3.14-6.89-7.74-13.01-13.46-17.97z" fill="#000"/><path d="m441.061 1488.39h-81.64c-19.549 0-38.298 7.77-52.121 21.59s-21.589 32.57-21.589 52.12v57.69h229.06v-57.69c0-19.55-7.766-38.3-21.589-52.12-13.824-13.82-32.572-21.59-52.121-21.59z" fill="#6320ee"/><path d="m185.214 930.859c-7.713 12.256-4.029 28.444 8.227 36.156l7.457 4.692c6.347 3.994 13.748 4.932 20.481 3.205l-10.966-30.855c-.257-.723-.168-1.524.242-2.172l238.62-377.8c.243-.386.575-.682.951-.879.194-.102.4-.177.612-.225.362-.081.741-.083 1.11.001.404.093.791.287 1.121.585l22.69 20.563 3.742-5.948c7.712-12.256 4.029-28.444-8.228-36.156l-7.456-4.692c-12.257-7.712-28.444-4.029-36.157 8.228zm218.569 557.371c-60.232-169.53-120.474-339.06-180.724-508.59-6.187 1.682-12.875 1.465-19.109-.868 60.165 169.268 120.337 338.528 180.516 507.778.462 1.3-.218 2.73-1.518 3.2-1.301.46-2.731-.22-3.194-1.52-60.77-170.92-121.534-341.85-182.291-512.777l-6.684-4.206c-14.594-9.183-18.98-28.458-9.797-43.051l242.447-385.297c9.182-14.594 28.457-18.98 43.051-9.797l7.456 4.692c14.594 9.183 18.98 28.458 9.797 43.051l-4.212 6.694 69.018 62.548c1.023.927 1.1 2.508.173 3.532-.927 1.023-2.508 1.1-3.531.173l-68.364-61.955-235.531 374.305c-3.383 5.377-8.137 9.369-13.522 11.806 60.252 169.542 120.496 339.072 180.731 508.602.462 1.3-.218 2.73-1.519 3.2-1.301.46-2.731-.22-3.193-1.52zm-166.729-524.751 236-375.052-21.14-19.158-236.383 374.258 10.552 29.69c4.364-2.061 8.211-5.35 10.971-9.738z" fill="#000"/></g><path d="m1135.26 620.45h-545.79c-21.374 0-38.7 17.327-38.7 38.7v435.09c0 21.37 17.326 38.7 38.7 38.7h545.79c21.37 0 38.7-17.33 38.7-38.7v-435.09c0-21.373-17.33-38.7-38.7-38.7z" fill="#6320ee"/><path clip-rule="evenodd" d="m586.85 651.94c0-1.381 1.119-2.5 2.5-2.5h544.14c1.38 0 2.5 1.119 2.5 2.5v436.12c0 1.38-1.12 2.5-2.5 2.5h-544.14c-1.381 0-2.5-1.12-2.5-2.5zm5 2.5v431.12h190.781c.022-.17.055-.34.099-.51l26.358-100.288c-2.272-.309-4.498-.919-6.618-1.816-3.15-1.332-6.005-3.272-8.404-5.71-2.398-2.437-4.292-5.324-5.573-8.494-1.282-3.171-1.925-6.563-1.893-9.982l.27-33.92c.027-3.417.728-6.795 2.062-9.941s3.275-5.998 5.712-8.393 5.322-4.287 8.491-5.566c3.168-1.279 6.558-1.922 9.975-1.89l10 .08c5.464.04 10.777 1.8 15.185 5.031 4.407 3.232 7.683 7.769 9.365 12.969l3.459 10.716 22.856.182 1.942-45.668-6.19-.318c-1.93-.099-3.415-1.745-3.316-3.675.1-1.931 1.745-3.415 3.675-3.316l6.129.315.446-10.489-6.043-.31c-1.93-.099-3.415-1.745-3.316-3.675.099-1.931 1.745-3.415 3.675-3.316l5.981.307.447-10.499-5.877-.302c-1.93-.099-3.415-1.745-3.316-3.675.099-1.931 1.745-3.415 3.675-3.316l5.815.299.447-10.489-5.718-.294c-1.931-.099-3.416-1.744-3.316-3.675.099-1.93 1.744-3.415 3.675-3.316l5.656.291 1.673-39.337-74.028 23.778c-2.103.676-4.356-.482-5.031-2.585-.676-2.103.482-4.356 2.585-5.032l76.837-24.68.679-15.971-85.988-.54c-2.209-.014-3.989-1.816-3.975-4.025s1.816-3.989 4.025-3.975l86.278.542.917-21.557-87.18-7.249c-2.202-.183-3.838-2.116-3.655-4.318.183-2.201 2.116-3.837 4.318-3.654l86.858 7.222 1.103-25.948-88.345-9.592c-2.197-.238-3.784-2.212-3.545-4.408.238-2.196 2.212-3.783 4.408-3.545l87.823 9.535 1.409-33.128zm300.765 0-1.413 33.21 88.355-8.452c2.2-.21 4.153 1.402 4.363 3.601s-1.402 4.152-3.601 4.363l-89.46 8.558-1.108 26.05 89.527-6.3c2.203-.155 4.116 1.505 4.271 3.709s-1.506 4.116-3.71 4.271l-90.43 6.363-.907 21.317 90.713.57c2.209.014 3.988 1.816 3.975 4.025-.014 2.209-1.816 3.989-4.025 3.975l-91.003-.572-.594 13.951c.764.056 1.492.331 2.098.781l80.127 26.928c2.095.704 3.222 2.972 2.518 5.066s-2.972 3.221-5.066 2.517l-80.034-26.896-1.778 41.791 5.752.295c1.931.099 3.415 1.745 3.316 3.675-.099 1.931-1.744 3.415-3.675 3.316l-5.69-.292-.446 10.489 5.593.287c1.93.099 3.415 1.744 3.316 3.675-.099 1.93-1.745 3.415-3.675 3.316l-5.532-.284-.446 10.499 5.427.279c1.93.099 3.415 1.744 3.316 3.675-.099 1.93-1.745 3.415-3.675 3.315l-5.366-.275-.446 10.489 5.28.271c1.931.099 3.415 1.744 3.316 3.675-.099 1.93-1.744 3.415-3.675 3.316l-5.219-.268-1.929 45.364 14.724.117 3.64-10.66c1.76-5.177 5.108-9.668 9.568-12.833 4.459-3.166 9.803-4.844 15.272-4.797l10 .09c3.421.02 6.804.714 9.957 2.044 3.152 1.33 6.011 3.269 8.412 5.706 2.402 2.436 4.298 5.323 5.582 8.494 1.284 3.172 1.929 6.565 1.899 9.986l-.27 33.92c-.024 3.419-.721 6.799-2.053 9.948-1.331 3.149-3.271 6.004-5.707 8.402-2.437 2.399-5.322 4.293-8.491 5.575-3.17 1.281-6.561 1.925-9.979 1.895l-.45-.003v98.253c0 .47-.081.92-.23 1.34h198.141v-431.12zm32.694 431.12c-.149-.42-.23-.87-.23-1.34v-98.318l-27.619-.224v.002l-80.173-.641-26.418 100.521zm-117.075 465.58c.707-1.19 2.242-1.57 3.428-.87l46.82 27.93c.126.08.245.16.355.26 5.416 4.69 9.759 10.49 12.736 17 2.977 6.52 4.518 13.6 4.518 20.76h-5c0-6.45-1.387-12.82-4.066-18.68-2.649-5.8-6.5-10.96-11.297-15.16l-46.628-27.81c-1.186-.71-1.573-2.25-.866-3.43zm7.954-602.51c6.76 0 12.24-5.48 12.24-12.24s-5.48-12.24-12.24-12.24-12.24 5.48-12.24 12.24 5.48 12.24 12.24 12.24zm112.891.91c6.76 0 12.24-5.48 12.24-12.24s-5.48-12.24-12.24-12.24-12.24 5.48-12.24 12.24 5.48 12.24 12.24 12.24z" fill="#fff" fill-rule="evenodd"/><path clip-rule="evenodd" d="m472.94 565.42c0 11.902-9.648 21.55-21.55 21.55s-21.55-9.648-21.55-21.55 9.648-21.55 21.55-21.55 21.55 9.648 21.55 21.55zm-237.92 378.06c0 11.902-9.648 21.55-21.55 21.55s-21.55-9.648-21.55-21.55 9.648-21.55 21.55-21.55 21.55 9.648 21.55 21.55z" fill="#000" fill-rule="evenodd"/></g></g></svg>