<svg width="2140" height="1800" viewBox="0 0 2140 1800" fill="none" xmlns="http://www.w3.org/2000/svg">
<g clip-path="url(#clip0)">
<path d="M1716.24 1323.12V1412.18H1186.6V942.45H1658.78" stroke="#5882AF" stroke-width="3" stroke-linecap="round" stroke-linejoin="round"/>
<path d="M1580.59 1412.17H1351.2V1456.46H1580.59V1412.17Z" stroke="#5882AF" stroke-width="3" stroke-linecap="round" stroke-linejoin="round"/>
<path d="M1716.34 880.84H1658.78V1323.11H1716.34V880.84Z" stroke="#5882AF" stroke-width="3" stroke-linecap="round" stroke-linejoin="round"/>
<path d="M1465.9 974.01H1433.68V1108.52H1465.9V974.01Z" stroke="#5882AF" stroke-width="3" stroke-linecap="round" stroke-linejoin="round"/>
<path d="M1529.05 974.01H1496.83V1108.52H1529.05V974.01Z" stroke="#5882AF" stroke-width="3" stroke-linecap="round" stroke-linejoin="round"/>
<path d="M1592.19 974.01H1559.97V1108.52H1592.19V974.01Z" stroke="#5882AF" stroke-width="3" stroke-linecap="round" stroke-linejoin="round"/>
<path d="M1863.26 774.3H1642.67V880.83H1863.26V774.3Z" stroke="#5882AF" stroke-width="3" stroke-linecap="round" stroke-linejoin="round"/>
<path d="M1716.24 354.18H1658.78V693.54H1716.24V354.18Z" stroke="#5882AF" stroke-width="3" stroke-linecap="round" stroke-linejoin="round"/>
<path d="M1597.88 677.22H1658.78V634.27H1597.88" stroke="#5882AF" stroke-width="3" stroke-linecap="round" stroke-linejoin="round"/>
<path d="M1241.65 1495.7V1412.18H1275.16V1495.7" stroke="#5882AF" stroke-width="3" stroke-linecap="round" stroke-linejoin="round"/>
<path d="M1523.89 1456.47H1398.45V1483.96H1523.89V1456.47Z" stroke="#5882AF" stroke-width="3" stroke-linecap="round" stroke-linejoin="round"/>
<path d="M1258.41 1617.13C1292.57 1617.13 1320.27 1589.43 1320.27 1555.27C1320.27 1521.11 1292.57 1493.41 1258.41 1493.41C1224.25 1493.41 1196.55 1521.11 1196.55 1555.27C1196.55 1589.43 1224.25 1617.13 1258.41 1617.13Z" stroke="#5882AF" stroke-width="3" stroke-linecap="round" stroke-linejoin="round"/>
<path d="M1258.41 1581.04C1272.64 1581.04 1284.18 1569.5 1284.18 1555.27C1284.18 1541.04 1272.64 1529.5 1258.41 1529.5C1244.18 1529.5 1232.64 1541.04 1232.64 1555.27C1232.64 1569.5 1244.18 1581.04 1258.41 1581.04Z" stroke="#5882AF" stroke-width="3" stroke-linecap="round" stroke-linejoin="round"/>
<path d="M1682.83 1495.7V1412.18H1716.34V1495.7" stroke="#5882AF" stroke-width="3" stroke-linecap="round" stroke-linejoin="round"/>
<path d="M1699.59 1617.13C1733.75 1617.13 1761.45 1589.43 1761.45 1555.27C1761.45 1521.11 1733.75 1493.41 1699.59 1493.41C1665.43 1493.41 1637.73 1521.11 1637.73 1555.27C1637.73 1589.43 1665.43 1617.13 1699.59 1617.13Z" stroke="#5882AF" stroke-width="3" stroke-linecap="round" stroke-linejoin="round"/>
<path d="M1699.59 1581.04C1713.82 1581.04 1725.36 1569.5 1725.36 1555.27C1725.36 1541.04 1713.82 1529.5 1699.59 1529.5C1685.36 1529.5 1673.82 1541.04 1673.82 1555.27C1673.82 1569.5 1685.36 1581.04 1699.59 1581.04Z" stroke="#5882AF" stroke-width="3" stroke-linecap="round" stroke-linejoin="round"/>
<path d="M1554.82 703.85C1581.39 703.85 1602.93 682.31 1602.93 655.74C1602.93 629.17 1581.39 607.63 1554.82 607.63C1528.25 607.63 1506.71 629.17 1506.71 655.74C1506.71 682.31 1528.25 703.85 1554.82 703.85Z" stroke="#5882AF" stroke-width="3" stroke-linecap="round" stroke-linejoin="round"/>
<path d="M1576.08 612.58L1480.61 489.19C1476.65 484.093 1470.87 480.727 1464.48 479.795C1458.09 478.863 1451.59 480.438 1446.34 484.19V484.19C1443.6 486.158 1441.29 488.66 1439.54 491.545C1437.79 494.431 1436.64 497.64 1436.17 500.981C1435.69 504.321 1435.9 507.723 1436.78 510.981C1437.65 514.239 1439.18 517.287 1441.26 519.94L1521.19 621.38" stroke="#5882AF" stroke-width="3" stroke-linecap="round" stroke-linejoin="round"/>
<path d="M1435.91 510.55L1478.05 688.69C1479.44 694.57 1482.4 699.962 1486.62 704.288C1490.84 708.614 1496.16 711.712 1502 713.25L1655.35 753.68V774.3" stroke="#5882AF" stroke-width="3" stroke-linecap="round" stroke-linejoin="round"/>
<path d="M1584.56 693.54L1690.38 720.64C1696.57 722.235 1702.05 725.843 1705.97 730.895C1709.88 735.948 1712 742.159 1712 748.55V774.3" stroke="#5882AF" stroke-width="3" stroke-linecap="round" stroke-linejoin="round"/>
<path d="M374.54 1041.26H807.69C814.466 1041.26 820.965 1043.95 825.757 1048.74C830.548 1053.53 833.24 1060.03 833.24 1066.81V1434.32H349V1066.81C349 1060.04 351.69 1053.54 356.48 1048.75C361.269 1043.96 367.765 1041.26 374.54 1041.26Z" stroke="#5882AF" stroke-width="3" stroke-linecap="round" stroke-linejoin="round"/>
<path d="M807.69 1570.38H374.54C367.764 1570.38 361.265 1567.69 356.473 1562.9C351.682 1558.1 348.99 1551.61 348.99 1544.83V1434.32H833.23V1544.83C833.23 1551.6 830.539 1558.1 825.75 1562.89C820.961 1567.68 814.465 1570.38 807.69 1570.38V1570.38Z" stroke="#5882AF" stroke-width="3" stroke-linecap="round" stroke-linejoin="round"/>
<path d="M905.49 1337.52H833.24V1470.22H905.49V1337.52Z" stroke="#5882AF" stroke-width="3" stroke-linecap="round" stroke-linejoin="round"/>
<path d="M787.94 1570.38H715.69V1626.11H787.94V1570.38Z" stroke="#5882AF" stroke-width="3" stroke-linecap="round" stroke-linejoin="round"/>
<path d="M466.62 1570.38H394.37V1626.11H466.62V1570.38Z" stroke="#5882AF" stroke-width="3" stroke-linecap="round" stroke-linejoin="round"/>
<path d="M349 1337.52H276.75V1470.22H349V1337.52Z" stroke="#5882AF" stroke-width="3" stroke-linecap="round" stroke-linejoin="round"/>
<path d="M1072.55 173.89H511.18V700.38H1072.55V173.89Z" stroke="#5882AF" stroke-width="3" stroke-linecap="round" stroke-linejoin="round"/>
<path d="M1035.19 208.92H548.53V665.34H1035.19V208.92Z" stroke="#5882AF" stroke-width="3" stroke-linecap="round" stroke-linejoin="round"/>
<path d="M865.28 423.52H803V363.72H775.78V423.52H718.46V450.74H775.78V510.55H803V450.74H865.28V423.52Z" stroke="#5882AF" stroke-width="3" stroke-linecap="round" stroke-linejoin="round"/>
<path d="M612.22 936.91L591.12 916.48" stroke="#5882AF" stroke-width="3" stroke-linecap="round" stroke-linejoin="round"/>
<path d="M920.82 866.84L939.82 844.45" stroke="#5882AF" stroke-width="3" stroke-linecap="round" stroke-linejoin="round"/>
<path d="M997.35 1118.02L974.96 1099.01" stroke="#5882AF" stroke-width="3" stroke-linecap="round" stroke-linejoin="round"/>
<path d="M1198.25 441.38L1217.25 418.99" stroke="#5882AF" stroke-width="3" stroke-linecap="round" stroke-linejoin="round"/>
<path d="M1286.36 793.31L1263.97 774.3" stroke="#5882AF" stroke-width="3" stroke-linecap="round" stroke-linejoin="round"/>
<path d="M1540.24 339.52L1517.85 320.51" stroke="#5882AF" stroke-width="3" stroke-linecap="round" stroke-linejoin="round"/>
<g clip-path="url(#clip1)">
<path d="M1423.13 909.441C1405 1018.99 1386.86 1128.55 1368.73 1238.1C1366.68 1250.39 1367.89 1263 1372.25 1274.67C1402.92 1356.4 1433.56 1438.14 1464.19 1519.88H1579.72C1546.02 1430.55 1512.32 1341.21 1478.63 1251.88L1519.37 990.081L1544.63 988.841C1590.26 1165.72 1635.89 1342.59 1681.53 1519.46H1796.25L1638.87 899.461L1423.13 909.441Z" fill="#903600"/>
<path d="M1286.2 546.401L1264.2 558.811C1259.9 561.231 1256.5 564.966 1254.49 569.468C1252.48 573.969 1251.97 578.997 1253.03 583.811L1266.36 643.881C1266.76 645.71 1267.31 647.502 1268.01 649.241L1275.89 668.921L1327.95 657.211C1326.85 649.838 1325.75 642.464 1324.66 635.091L1311.13 590.671L1297.44 593.831L1301.44 619.071L1292.58 621.011L1288.29 605.731C1284.4 593.531 1283.5 586.321 1279.61 574.121C1285.15 570.061 1287.69 560.991 1293.23 556.931L1286.2 546.401Z" fill="#FE9A94"/>
<path d="M1264.06 672.231C1278.06 755.001 1287.95 813.551 1301.95 896.321C1303.32 904.473 1306.29 912.273 1310.69 919.273C1315.09 926.272 1320.83 932.332 1327.58 937.105C1334.33 941.877 1341.96 945.268 1350.02 947.081C1358.09 948.895 1366.44 949.095 1374.58 947.671L1375.21 947.561L1426.06 732.971L1331.53 651.321L1329.7 663.741L1329.45 654.001L1264.06 672.231Z" fill="#9DC5BB"/>
<path d="M1327.79 676.671L1432.25 950L1649.96 890.121L1525.59 581.331C1464.77 602.751 1403.25 622.261 1342.46 643.671C1342.35 643.702 1342.24 643.742 1342.14 643.791C1339 644.948 1336.12 646.73 1333.68 649.029C1331.24 651.328 1329.29 654.096 1327.95 657.168C1326.61 660.24 1325.9 663.552 1325.88 666.904C1325.85 670.255 1326.5 673.578 1327.79 676.671Z" fill="black"/>
<path fill-rule="evenodd" clip-rule="evenodd" d="M1447.89 606.841L1581.07 879.071C1587.57 987.96 1594.07 1096.84 1600.58 1205.72C1581.93 1133.43 1563.28 1061.13 1544.63 988.841L1519.37 990.081L1478.63 1251.88L1483.8 1265.6L1604.02 1263.22C1605.22 1283.37 1606.42 1303.52 1607.63 1323.67L1808.63 1278.58C1762.38 1129.12 1716.13 979.658 1669.9 830.191L1524.25 579.671L1447.89 606.841ZM1418.25 939L1327.79 676.671C1326.5 673.578 1325.85 670.257 1325.88 666.906C1325.91 663.555 1326.61 660.245 1327.95 657.174C1329.29 654.103 1331.24 651.336 1333.68 649.037C1336.12 646.739 1338.99 644.958 1342.14 643.801L1445.97 939L1432.25 946L1418.25 939Z" fill="#9DC5BB"/>
<path fill-rule="evenodd" clip-rule="evenodd" d="M1443.57 606.53C1443.13 605.223 1443.82 603.802 1445.13 603.355C1446.44 602.908 1447.86 603.605 1448.3 604.912L1465.67 655.712C1465.68 655.731 1465.69 655.75 1465.69 655.769L1471.44 653.805L1471.44 653.805C1476.71 652.005 1482.48 652.369 1487.48 654.816C1492.48 657.263 1496.3 661.593 1498.11 666.858L1498.11 666.863L1519.83 730.403L1519.83 730.403C1521.63 735.68 1521.26 741.456 1518.8 746.461C1516.35 751.467 1512 755.292 1506.73 757.096C1505.42 757.543 1504 756.846 1503.55 755.54C1503.11 754.233 1503.8 752.812 1505.11 752.365C1509.13 750.99 1512.44 748.074 1514.31 744.259C1516.19 740.443 1516.47 736.041 1515.09 732.019L1493.39 668.484L1493.38 668.482C1492 664.471 1489.09 661.171 1485.28 659.307C1481.47 657.442 1477.07 657.165 1473.06 658.537L1473.06 658.537L1454.88 664.746L1454.88 664.746C1450.86 666.123 1447.55 669.04 1445.68 672.855C1443.81 676.67 1443.53 681.072 1444.91 685.093L1466.61 748.592L1466.62 748.593C1467.99 752.613 1470.9 755.923 1474.72 757.795C1478.53 759.667 1482.93 759.948 1486.95 758.575C1488.26 758.129 1489.68 758.826 1490.13 760.133C1490.57 761.44 1489.87 762.861 1488.57 763.307C1483.29 765.108 1477.52 764.74 1472.51 762.284C1467.51 759.828 1463.69 755.484 1461.88 750.21L1461.88 750.209L1440.17 686.71L1440.17 686.709C1438.37 681.434 1438.74 675.659 1441.19 670.654C1443.65 665.649 1447.99 661.822 1453.26 660.016L1453.26 660.015L1460.96 657.384C1460.96 657.366 1460.95 657.348 1460.94 657.33L1443.57 606.53ZM1368.99 632.029C1368.55 630.723 1369.24 629.302 1370.55 628.855C1371.86 628.408 1373.28 629.106 1373.72 630.412L1401.76 712.432C1401.91 712.858 1401.93 713.297 1401.85 713.71L1404.84 712.69C1413.2 709.832 1422.3 714.293 1425.15 722.655L1428.4 732.155C1431.26 740.517 1426.8 749.612 1418.44 752.47L1408.94 755.717C1400.57 758.575 1391.48 754.114 1388.62 745.752L1385.37 736.252C1382.52 727.89 1386.98 718.795 1395.34 715.937L1397.74 715.115C1397.43 714.837 1397.18 714.476 1397.03 714.049L1368.99 632.029ZM1420.42 724.272C1418.46 718.523 1412.2 715.456 1406.46 717.421L1396.96 720.668C1391.21 722.633 1388.14 728.886 1390.1 734.634L1393.35 744.135C1395.32 749.883 1401.57 752.951 1407.32 750.986L1416.82 747.739C1422.57 745.774 1425.63 739.521 1423.67 733.772L1420.42 724.272Z" fill="white"/>
<path d="M1306.69 789.28L1412.82 732.873C1419.53 729.304 1427.87 731.854 1431.44 738.569L1516.76 899.095C1520.33 905.811 1517.77 914.148 1511.06 917.717L1404.93 974.125C1398.21 977.694 1389.88 975.143 1386.31 968.428L1300.99 807.902C1297.42 801.186 1299.97 792.849 1306.69 789.28Z" fill="#6320EE"/>
<path d="M1593.68 856.021C1555.9 867.351 1422.17 914.231 1398.02 921.021C1391.41 922.886 1384.34 922.148 1378.26 918.958C1372.18 915.767 1367.56 910.368 1365.34 903.871L1361.17 891.671C1359.69 887.325 1359.76 882.603 1361.35 878.299C1362.94 873.994 1365.97 870.369 1369.92 868.031L1395.2 853.141L1410.71 839.141C1419.84 830.906 1431.73 826.395 1444.02 826.501L1476.42 826.771C1483.42 825.431 1586.42 791.261 1593.35 789.921L1593.68 856.021Z" fill="#FE9A94"/>
<path fill-rule="evenodd" clip-rule="evenodd" d="M1438.63 838.503C1438.18 837.196 1436.76 836.499 1435.45 836.945L1393.91 851.135C1392.61 851.582 1391.91 853.003 1392.36 854.309C1392.8 855.616 1394.22 856.313 1395.53 855.867L1437.07 841.677C1438.38 841.23 1439.07 839.809 1438.63 838.503ZM1404.63 874.762C1404.19 873.456 1402.77 872.759 1401.46 873.205L1359.92 887.405C1358.61 887.852 1357.92 889.273 1358.36 890.579C1358.81 891.886 1360.23 892.583 1361.54 892.136L1403.08 877.936C1404.38 877.49 1405.08 876.069 1404.63 874.762ZM1406.78 888.785C1408.09 888.339 1409.51 889.036 1409.95 890.343C1410.4 891.649 1409.7 893.07 1408.4 893.517L1366.86 907.707C1365.55 908.153 1364.13 907.456 1363.68 906.149C1363.24 904.842 1363.93 903.421 1365.24 902.975L1406.78 888.785Z" fill="black"/>
<path d="M1736.85 739.931C1724.48 717.491 1711.85 701.281 1690.76 683.611C1662.06 659.526 1635.15 633.384 1610.25 605.391C1599.11 592.88 1584.53 583.931 1568.33 579.663C1552.13 575.394 1535.03 575.995 1519.17 581.391L1447.88 606.821L1629.69 767.671C1596.69 780.361 1515.42 809.551 1482.42 822.241L1521.25 898.801L1697.69 840.611C1739.13 826.441 1758.01 778.281 1736.85 739.931Z" fill="#9DC5BB"/>
<path fill-rule="evenodd" clip-rule="evenodd" d="M1328.8 651.587C1327.47 651.946 1326.68 653.318 1327.04 654.651L1344.51 719.491C1344.87 720.825 1346.24 721.614 1347.57 721.255C1348.91 720.896 1349.69 719.524 1349.34 718.191L1331.87 653.351C1331.51 652.017 1330.13 651.228 1328.8 651.587Z" fill="black"/>
<path fill-rule="evenodd" clip-rule="evenodd" d="M1592.3 1570.48L1677.84 1519.45H1797.14L1822.25 1616.85H1604.25H1563.25H1345.25C1345.25 1609.28 1346.88 1601.79 1350.03 1594.91C1353.17 1588.02 1357.77 1581.89 1363.49 1576.93L1461.84 1519.45H1579.14L1592.3 1570.48Z" fill="black"/>
<path fill-rule="evenodd" clip-rule="evenodd" d="M1311.67 499.551L1311.39 499.707C1304.16 503.792 1287.53 513.184 1284.02 530.421C1282.02 540.421 1285.58 548.691 1292.86 564.861C1304.99 591.861 1312.45 608.401 1329.68 614.701C1343.66 619.805 1356.84 615.551 1366.1 612.561L1366.13 612.551C1370.03 611.292 1373.83 609.738 1377.49 607.901C1377.89 607.701 1378.28 607.498 1378.67 607.29L1389.25 627.5L1439.25 611L1410.92 557.2L1415.27 552.391C1418.17 549.281 1420.17 545.441 1421.06 541.281C1422.76 532.721 1418.88 525.861 1410.54 522.661C1407.41 521.519 1404.1 521.046 1400.8 521.259C1397.94 515.956 1393.21 507.206 1387.56 496.751C1378.54 493.491 1343.31 481.881 1311.67 499.551Z" fill="#FE9A94"/>
<path fill-rule="evenodd" clip-rule="evenodd" d="M1288.48 545.367C1289.36 544.965 1290.24 544.568 1291.1 544.175L1291.1 544.175C1300.07 540.104 1308.23 536.402 1317.73 531.881C1326.14 527.879 1331.52 525.016 1335.58 522.861C1340.52 520.234 1343.49 518.658 1347.53 517.351C1358.71 513.741 1376.24 511.991 1402.3 522.921L1387.56 496.771C1385.35 493.081 1378.82 483.341 1366.46 479.051C1351.25 473.771 1333.39 478.891 1320.85 492.051C1296.41 477.661 1269.85 486.431 1262.85 501.931C1258.04 512.621 1261.56 528.791 1271.85 538.491C1275.31 541.687 1279.38 544.128 1283.81 545.667C1283.64 546.219 1283.66 546.832 1283.91 547.403L1287.9 556.523C1288.01 556.77 1288.15 556.992 1288.32 557.183C1283.27 561.288 1280.04 567.552 1280.04 574.571C1280.04 586.936 1290.06 596.961 1302.43 596.961C1314.8 596.961 1324.82 586.936 1324.82 574.571C1324.82 573.962 1324.8 573.36 1324.75 572.764C1328.62 575.978 1333.6 577.911 1339.03 577.911C1351.4 577.911 1361.42 567.887 1361.42 555.521C1361.42 543.155 1351.4 533.131 1339.03 533.131C1326.67 533.131 1316.64 543.155 1316.64 555.521C1316.64 556.129 1316.67 556.732 1316.71 557.328C1312.84 554.113 1307.86 552.181 1302.43 552.181C1298.86 552.181 1295.48 553.019 1292.48 554.509L1288.49 545.399C1288.49 545.388 1288.48 545.377 1288.48 545.367ZM1339.03 538.131C1348.64 538.131 1356.42 545.917 1356.42 555.521C1356.42 565.125 1348.64 572.911 1339.03 572.911C1329.43 572.911 1321.64 565.125 1321.64 555.521C1321.64 545.917 1329.43 538.131 1339.03 538.131ZM1334.91 555.521C1334.91 557.796 1336.75 559.641 1339.03 559.641C1341.3 559.641 1343.15 557.796 1343.15 555.521C1343.15 553.245 1341.3 551.401 1339.03 551.401C1336.75 551.401 1334.91 553.245 1334.91 555.521ZM1296.69 574.971C1296.69 577.246 1298.53 579.091 1300.81 579.091C1303.09 579.091 1304.93 577.246 1304.93 574.971C1304.93 572.696 1303.09 570.851 1300.81 570.851C1298.53 570.851 1296.69 572.696 1296.69 574.971ZM1319.82 574.571C1319.82 564.966 1312.03 557.181 1302.43 557.181C1292.83 557.181 1285.04 564.966 1285.04 574.571C1285.04 584.175 1292.83 591.961 1302.43 591.961C1312.03 591.961 1319.82 584.175 1319.82 574.571Z" fill="black"/>
</g>
<g clip-path="url(#clip2)">
<path fill-rule="evenodd" clip-rule="evenodd" d="M915.211 390.14L915.314 390.136C923.495 389.823 942.822 389.085 954.911 402.07C961.841 409.53 963.091 418.48 965.311 436.07L965.332 436.244C969.02 465.481 971.288 483.468 959.861 497.8C950.616 509.43 937.137 512.679 927.679 514.958L927.679 514.958L927.631 514.97C923.645 515.924 919.594 516.575 915.511 516.92C914.998 516.963 914.486 516.998 913.975 517.028L916.07 547.51L864.57 553.05L860.302 490.986L854.35 489.23C850.254 488.084 846.543 485.852 843.61 482.77C837.7 476.35 837.44 468.46 842.89 461.39C844.979 458.771 847.585 456.629 850.532 455.088C850.502 454.533 850.471 453.945 850.438 453.325C850.112 447.228 849.623 438.079 849.061 427.35C855.001 419.83 879.001 391.55 915.211 390.14Z" fill="#FE9A94"/>
<path fill-rule="evenodd" clip-rule="evenodd" d="M915.93 401.22L961.37 416.85C968.33 415.12 971.66 407.79 969.52 402.59C967.701 398.276 964.936 392.409 960.29 393.01C962.022 387.984 963.752 382.961 965.48 377.94L882.48 388.94C872.956 389.596 864.083 394.008 857.813 401.206C851.542 408.403 848.386 417.796 849.04 427.32C849.386 437.32 849.74 447.32 850.1 457.32C865.749 447.663 880.427 436.514 893.93 424.03C901.678 416.838 909.022 409.223 915.93 401.22ZM963.261 449.11C965.536 449.11 967.381 447.266 967.381 444.99C967.381 442.715 965.536 440.87 963.261 440.87C960.985 440.87 959.141 442.715 959.141 444.99C959.141 447.266 960.985 449.11 963.261 449.11ZM919.36 450.5C921.636 450.5 923.48 448.655 923.48 446.38C923.48 444.104 921.636 442.26 919.36 442.26C917.085 442.26 915.24 444.104 915.24 446.38C915.24 448.655 917.085 450.5 919.36 450.5Z" fill="black"/>
<path d="M984.71 869.83C974.82 1086.6 982.93 1305.38 973.04 1522.15L857.58 1523.15C872.74 1333.85 869.91 1143.55 885.07 954.26L871.43 954.48C826.88 1144.16 799.33 1333.84 754.77 1523.48L640.08 1525.48L769.09 878L984.71 869.83Z" fill="#EA9027"/>
<path d="M628.369 464C649.369 430.6 719.109 307.25 732.789 286.21C736.529 280.452 742.335 276.349 749.01 274.745C755.686 273.141 762.722 274.159 768.669 277.59L779.839 284.03C783.814 286.326 786.878 289.92 788.517 294.208C790.156 298.496 790.27 303.218 788.839 307.58C785.766 316.86 782.692 326.143 779.619 335.43L777.169 356.19C775.725 368.4 769.751 379.623 760.429 387.64L735.869 408.76C731.509 414.36 676.489 507.91 672.129 513.51L628.369 464Z" fill="#FE9A94"/>
<path fill-rule="evenodd" clip-rule="evenodd" d="M769.356 278.268C770.045 277.071 769.634 275.543 768.437 274.854C767.241 274.164 765.712 274.576 765.023 275.772L743.113 313.812C742.424 315.009 742.836 316.537 744.032 317.226C745.228 317.915 746.757 317.504 747.446 316.308L769.356 278.268ZM782.709 283.074C783.906 283.763 784.317 285.292 783.627 286.488L761.717 324.518C761.028 325.715 759.5 326.126 758.303 325.436C757.107 324.747 756.696 323.219 757.385 322.022L779.295 283.992C779.984 282.796 781.513 282.385 782.709 283.074ZM780.998 332.744C782.194 333.433 782.606 334.961 781.917 336.158L760.007 374.198C759.318 375.394 757.789 375.806 756.593 375.116C755.396 374.427 754.985 372.899 755.674 371.702L777.584 333.662C778.273 332.466 779.802 332.055 780.998 332.744Z" fill="black"/>
<path fill-rule="evenodd" clip-rule="evenodd" d="M1208 547.24C1187.93 563.18 1170.08 573.29 1143.77 581.46C1108.01 592.623 1073.1 606.379 1039.34 622.62C1024.24 629.864 1007.33 632.495 990.741 630.183C987.201 629.689 983.708 628.975 980.283 628.05C980.42 708.826 980.552 789.599 980.68 870.37L765.91 889.52C769.555 834.855 772.928 780.418 776.3 725.98C777.59 705.159 778.88 684.337 780.185 663.503C719.348 658.004 687.176 657.232 668.84 657.72C656.959 658.139 645.066 657.393 633.33 655.49C620.958 653.371 608.814 650.087 597.06 645.68C555.89 630.75 538.38 582.07 560.24 544.23L654.69 384.23L734.34 416.23C726.19 431.681 711.811 457.952 697.364 484.345C682.602 511.316 667.77 538.416 659.44 554.23L872.242 552.42C875.794 552.002 879.213 551.599 882.502 551.212L882.512 551.211C901.625 548.96 916.349 547.225 927.39 545.952L1119.79 480.3C1107.05 468.13 1084.83 447.561 1062.57 426.963C1040.17 406.229 1017.74 385.465 1004.91 373.21L1070.25 317.54L1210.63 439.21C1243.46 468.28 1242.32 520 1208 547.24Z" fill="black"/>
<path d="M1036.35 296.24C1026.67 294.1 1018.68 299.97 1005.72 309.51C994.34 317.88 988.53 322.15 987.32 329.89C985.32 342.55 997.5 352.89 1000.32 355.15C1012.58 364.89 1027.17 363.44 1028.81 362.31L1053.75 345.11C1067.75 335.43 1055.58 315.42 1054.75 313.68C1053.56 311 1048 298.8 1036.35 296.24Z" fill="#FE9A94"/>
<path fill-rule="evenodd" clip-rule="evenodd" d="M1033.72 320.568C1032.91 319.452 1031.34 319.207 1030.23 320.019C1029.11 320.832 1028.87 322.396 1029.68 323.512L1047.34 347.762C1048.15 348.878 1049.71 349.124 1050.83 348.311C1051.95 347.498 1052.19 345.935 1051.38 344.818L1033.72 320.568ZM1018.28 331.809C1017.47 330.693 1015.91 330.446 1014.79 331.258C1013.67 332.071 1013.43 333.634 1014.24 334.751L1031.89 359.011C1032.7 360.127 1034.26 360.374 1035.38 359.562C1036.5 358.749 1036.74 357.186 1035.93 356.069L1018.28 331.809Z" fill="black"/>
<path fill-rule="evenodd" clip-rule="evenodd" d="M1073.64 1580.25L975.271 1522.79L857.981 1522.77L852.734 1578.92L755 1523.68L639.7 1524.37L615.16 1621.91L874.16 1620.41C874.16 1620.33 874.159 1620.24 874.158 1620.16H1091.88C1091.88 1612.59 1090.25 1605.11 1087.1 1598.22C1083.96 1591.33 1079.36 1585.21 1073.64 1580.25Z" fill="black"/>
<path fill-rule="evenodd" clip-rule="evenodd" d="M441.061 1488.39H359.421C339.872 1488.39 321.123 1496.16 307.3 1509.98C293.477 1523.8 285.711 1542.55 285.711 1562.1V1619.79H514.771V1562.1C514.771 1542.55 507.005 1523.8 493.182 1509.98C479.358 1496.16 460.61 1488.39 441.061 1488.39Z" fill="#6320EE"/>
<path fill-rule="evenodd" clip-rule="evenodd" d="M185.214 930.859C177.501 943.115 181.185 959.303 193.441 967.015L200.898 971.707C207.245 975.701 214.646 976.639 221.379 974.912L210.413 944.057C210.156 943.334 210.245 942.533 210.655 941.885L449.275 564.085C449.518 563.699 449.85 563.403 450.226 563.206C450.42 563.104 450.626 563.029 450.838 562.981C451.2 562.9 451.579 562.898 451.948 562.982C452.352 563.075 452.739 563.269 453.069 563.567L475.759 584.13L479.501 578.182C487.213 565.926 483.53 549.738 471.273 542.026L463.817 537.334C451.56 529.622 435.373 533.305 427.66 545.562L185.214 930.859ZM403.783 1488.23C343.551 1318.7 283.309 1149.17 223.059 979.64C216.872 981.322 210.184 981.105 203.95 978.772C264.115 1148.04 324.287 1317.3 384.466 1486.55C384.928 1487.85 384.248 1489.28 382.948 1489.75C381.647 1490.21 380.217 1489.53 379.754 1488.23C318.984 1317.31 258.22 1146.38 197.463 975.453L190.779 971.247C176.185 962.064 171.799 942.789 180.982 928.196L423.429 542.899C432.611 528.305 451.886 523.919 466.48 533.102L473.936 537.794C488.53 546.977 492.916 566.252 483.733 580.845L479.521 587.539L548.539 650.087C549.562 651.014 549.639 652.595 548.712 653.619C547.785 654.642 546.204 654.719 545.181 653.792L476.817 591.837L241.286 966.142C237.903 971.519 233.149 975.511 227.764 977.948C288.016 1147.49 348.26 1317.02 408.495 1486.55C408.957 1487.85 408.277 1489.28 406.976 1489.75C405.675 1490.21 404.245 1489.53 403.783 1488.23ZM237.054 963.479L473.054 588.427L451.914 569.269L215.531 943.527L226.083 973.217C230.447 971.156 234.294 967.867 237.054 963.479Z" fill="black"/>
<path d="M1135.26 620.45H589.47C568.096 620.45 550.77 637.777 550.77 659.15V1094.24C550.77 1115.61 568.096 1132.94 589.47 1132.94H1135.26C1156.63 1132.94 1173.96 1115.61 1173.96 1094.24V659.15C1173.96 637.777 1156.63 620.45 1135.26 620.45Z" fill="#6320EE"/>
<path fill-rule="evenodd" clip-rule="evenodd" d="M586.85 651.94C586.85 650.559 587.969 649.44 589.35 649.44H1133.49C1134.87 649.44 1135.99 650.559 1135.99 651.94V1088.06C1135.99 1089.44 1134.87 1090.56 1133.49 1090.56H589.35C587.969 1090.56 586.85 1089.44 586.85 1088.06V651.94ZM591.85 654.44V1085.56H782.631C782.653 1085.39 782.686 1085.22 782.73 1085.05L809.088 984.762C806.816 984.453 804.59 983.843 802.47 982.946C799.32 981.614 796.465 979.674 794.066 977.236C791.668 974.799 789.774 971.912 788.493 968.742C787.211 965.571 786.568 962.179 786.6 958.76L786.87 924.84C786.897 921.423 787.598 918.045 788.932 914.899C790.266 911.753 792.207 908.901 794.644 906.506C797.081 904.111 799.966 902.219 803.135 900.94C806.303 899.661 809.693 899.018 813.11 899.05L823.11 899.13C828.574 899.17 833.887 900.93 838.295 904.161C842.702 907.393 845.978 911.93 847.66 917.13L851.119 927.846L873.975 928.028L875.917 882.36L869.727 882.042C867.797 881.943 866.312 880.297 866.411 878.367C866.511 876.436 868.156 874.952 870.086 875.051L876.215 875.366L876.661 864.877L870.618 864.567C868.688 864.468 867.203 862.822 867.302 860.892C867.401 858.961 869.047 857.477 870.977 857.576L876.958 857.883L877.405 847.384L871.528 847.082C869.598 846.983 868.113 845.337 868.212 843.407C868.311 841.476 869.957 839.992 871.887 840.091L877.702 840.39L878.149 829.901L872.431 829.607C870.5 829.508 869.015 827.863 869.115 825.932C869.214 824.002 870.859 822.517 872.79 822.616L878.446 822.907L880.119 783.57L806.091 807.348C803.988 808.024 801.735 806.866 801.06 804.763C800.384 802.66 801.542 800.407 803.645 799.731L880.482 775.051L881.161 759.08L795.173 758.54C792.964 758.526 791.184 756.724 791.198 754.515C791.212 752.306 793.014 750.526 795.223 750.54L881.501 751.082L882.418 729.525L795.238 722.276C793.036 722.093 791.4 720.16 791.583 717.958C791.766 715.757 793.699 714.121 795.901 714.304L882.759 721.526L883.862 695.578L795.517 685.986C793.32 685.748 791.733 683.774 791.972 681.578C792.21 679.382 794.184 677.795 796.38 678.033L884.203 687.568L885.612 654.44H591.85ZM892.615 654.44L891.202 687.65L979.557 679.198C981.757 678.988 983.71 680.6 983.92 682.799C984.13 684.998 982.518 686.951 980.319 687.162L890.859 695.72L889.751 721.77L979.278 715.47C981.481 715.315 983.394 716.975 983.549 719.179C983.704 721.383 982.043 723.295 979.839 723.45L889.409 729.813L888.502 751.13L979.215 751.7C981.424 751.714 983.203 753.516 983.19 755.725C983.176 757.934 981.374 759.714 979.165 759.7L888.162 759.128L887.568 773.079C888.332 773.135 889.06 773.41 889.666 773.86L969.793 800.788C971.888 801.492 973.015 803.76 972.311 805.854C971.607 807.948 969.339 809.075 967.245 808.371L887.211 781.475L885.433 823.266L891.185 823.561C893.116 823.66 894.6 825.306 894.501 827.236C894.402 829.167 892.757 830.651 890.826 830.552L885.136 830.26L884.69 840.749L890.283 841.036C892.213 841.135 893.698 842.78 893.599 844.711C893.5 846.641 891.854 848.126 889.924 848.027L884.392 847.743L883.946 858.242L889.373 858.521C891.303 858.62 892.788 860.265 892.689 862.196C892.59 864.126 890.944 865.611 889.014 865.511L883.648 865.236L883.202 875.725L888.482 875.996C890.413 876.095 891.897 877.74 891.798 879.671C891.699 881.601 890.054 883.086 888.123 882.987L882.904 882.719L880.975 928.083L895.699 928.2L899.339 917.54C901.099 912.363 904.447 907.872 908.907 904.707C913.366 901.541 918.71 899.863 924.179 899.91L934.179 900C937.6 900.02 940.983 900.714 944.136 902.044C947.288 903.374 950.147 905.313 952.548 907.75C954.95 910.186 956.846 913.073 958.13 916.244C959.414 919.416 960.059 922.809 960.029 926.23L959.759 960.15C959.735 963.569 959.038 966.949 957.706 970.098C956.375 973.247 954.435 976.102 951.999 978.5C949.562 980.899 946.677 982.793 943.508 984.075C940.338 985.356 936.947 986 933.529 985.97L933.079 985.967V1084.22C933.079 1084.69 932.998 1085.14 932.849 1085.56H1130.99V654.44H892.615ZM925.309 1085.56C925.16 1085.14 925.079 1084.69 925.079 1084.22V985.902L897.46 985.678L897.46 985.68L817.287 985.039L790.869 1085.56H925.309ZM808.234 1551.14C808.941 1549.95 810.476 1549.57 811.662 1550.27L858.482 1578.2C858.608 1578.28 858.727 1578.36 858.837 1578.46C864.253 1583.15 868.596 1588.95 871.573 1595.46C874.55 1601.98 876.091 1609.06 876.091 1616.22L871.091 1616.22C871.091 1609.77 869.704 1603.4 867.025 1597.54C864.376 1591.74 860.525 1586.58 855.728 1582.38L809.1 1554.57C807.914 1553.86 807.527 1552.32 808.234 1551.14ZM816.188 948.63C822.948 948.63 828.428 943.15 828.428 936.39C828.428 929.63 822.948 924.15 816.188 924.15C809.428 924.15 803.948 929.63 803.948 936.39C803.948 943.15 809.428 948.63 816.188 948.63ZM929.079 949.54C935.839 949.54 941.319 944.06 941.319 937.3C941.319 930.54 935.839 925.06 929.079 925.06C922.319 925.06 916.839 930.54 916.839 937.3C916.839 944.06 922.319 949.54 929.079 949.54Z" fill="white"/>
<path fill-rule="evenodd" clip-rule="evenodd" d="M472.94 565.42C472.94 577.322 463.292 586.97 451.39 586.97C439.488 586.97 429.84 577.322 429.84 565.42C429.84 553.518 439.488 543.87 451.39 543.87C463.292 543.87 472.94 553.518 472.94 565.42ZM235.02 943.48C235.02 955.382 225.372 965.03 213.47 965.03C201.568 965.03 191.92 955.382 191.92 943.48C191.92 931.578 201.568 921.93 213.47 921.93C225.372 921.93 235.02 931.578 235.02 943.48Z" fill="black"/>
</g>
</g>
<defs>
<clipPath id="clip0">
<rect width="2140" height="1800" fill="white"/>
</clipPath>
<clipPath id="clip1">
<rect width="1473.25" height="1393.62" fill="white" transform="matrix(-1 0 0 1 2274.25 223)"/>
</clipPath>
<clipPath id="clip2">
<rect width="1473.25" height="1393.62" fill="white" transform="translate(-15 227)"/>
</clipPath>
</defs>
</svg>
