<svg fill="none" height="935" viewBox="0 0 1803 935" width="1803" xmlns="http://www.w3.org/2000/svg"><path d="m997.251 233.194v3.108c0 28.571 9.109 42.857 27.319 42.857 18.32 0 27.48-14.286 27.48-42.857v-3.108c0-28.571-9.16-42.856-27.48-42.856-18.21 0-27.319 14.285-27.319 42.856zm-49.727 3.108v-3.108c0-24.427 6.816-44.056 20.447-58.886 13.631-14.831 32.499-22.246 56.599-22.246s42.96 7.415 56.59 22.246c13.64 14.83 20.45 34.459 20.45 58.886v3.108c0 24.536-6.81 44.22-20.45 59.051-13.63 14.721-32.49 22.082-56.59 22.082s-42.968-7.361-56.599-22.082c-13.631-14.722-20.447-34.406-20.447-59.051zm262.046 87.512c-14.94 0-26.93-5.725-35.99-17.175v75.408h-49.89v-220.498h46.62l1.8 17.502c9.38-13.631 21.7-20.447 36.97-20.447 19.63 0 34.9 7.47 45.8 22.41 10.91 14.94 16.36 35.06 16.36 60.359l.16 3.108c0 24.427-5.45 43.783-16.36 58.069-10.79 14.176-25.95 21.264-45.47 21.264zm-12.59-126.933c-11.13 0-18.98 4.035-23.56 12.104v66.411c4.36 6.762 12.27 10.142 23.72 10.142 16.25 0 24.37-13.686 24.37-41.057l.16-3.108c0-29.661-8.23-44.492-24.69-44.492zm185.82 18.32c0-16.684-6.87-25.027-20.61-25.027-13.42 0-20.94 9.379-22.58 28.135l.49.818h42.7zm45.63 84.404v-.163zm-139.85-59.704v-5.725c0-24.864 6.49-44.82 19.46-59.868 12.98-15.049 31.03-22.519 54.15-22.41 21.59 0 38.49 6.434 50.7 19.302 12.33 12.868 18.49 30.479 18.49 52.834v26.172h-90.95l-.33.818c1.09 8.506 4.47 15.321 10.14 20.447 5.67 5.125 13.04 7.688 22.09 7.688 9.16 0 16.46-.655 21.92-1.963 5.45-1.309 12.92-3.926 22.41-7.852l11.77 30.098c-7.3 5.343-16.52 9.651-27.64 12.922-11.02 3.272-22.68 4.907-35.01 4.907-23.22 0-41.93-7.251-56.1-21.755-14.07-14.503-21.1-33.042-21.1-55.615zm163.24-85.222h46.62l1.97 22.409c11.01-16.902 26-25.354 44.98-25.354 33.15 0 49.72 21.156 49.72 63.467v98.799h-49.72v-98.962c0-8.942-1.86-15.322-5.56-19.139-3.6-3.925-9.49-5.888-17.67-5.888s-15.1 3.162-20.77 9.487v114.502h-49.57z" fill="#28262c"/><path d="m1014.49 585.342v90.129c10.14-15.158 23.6-22.737 40.4-22.737 16.9 0 29.93 5.889 39.09 17.666 9.27 11.669 13.91 29.335 13.91 52.998v91.602h-49.73v-91.929c0-11.777-1.8-20.065-5.4-24.863s-9.7-7.197-18.32-7.197c-8.5 0-15.16 2.726-19.95 8.178v115.811h-49.895v-229.658zm210.84 130.859c0-16.684-6.87-25.027-20.61-25.027-13.41 0-20.94 9.379-22.57 28.135l.49.818h42.69zm45.64 84.404v-.163zm-139.86-59.704v-5.725c0-24.864 6.49-44.82 19.47-59.868 12.98-15.049 31.02-22.519 54.14-22.41 21.59 0 38.5 6.434 50.71 19.302 12.32 12.868 18.48 30.479 18.48 52.834v26.172h-90.94l-.33.818c1.09 8.506 4.47 15.321 10.14 20.447 5.67 5.125 13.03 7.688 22.08 7.688 9.16 0 16.47-.655 21.92-1.963 5.46-1.309 12.93-3.926 22.41-7.852l11.78 30.098c-7.31 5.343-16.52 9.651-27.64 12.922-11.02 3.272-22.69 4.907-35.01 4.907-23.23 0-41.93-7.251-56.11-21.755-14.06-14.503-21.1-33.042-21.1-55.615zm207.74 77.534c-15.26 0-27.59-4.362-36.96-13.086-9.38-8.724-14.07-20.338-14.07-34.841 0-16.14 5.94-28.408 17.83-36.804 11.88-8.506 29.82-12.759 53.81-12.759h18.16v-11.287c0-14.067-6.54-21.101-19.63-21.101-11.34 0-17.01 5.562-17.01 16.685l-48.09-.164-.33-.818c-.65-14.83 5.4-27.044 18.16-36.64 12.76-9.706 29.39-14.558 49.89-14.558 20.61 0 36.91 4.961 48.91 14.885 11.99 9.923 17.99 23.936 17.99 42.038v60.032c0 15.921 2.84 31.025 8.51 45.31l-49.08-.163c-2.94-5.671-5.12-11.723-6.54-18.157-10.36 14.285-24.21 21.428-41.55 21.428zm21.1-70.991c-7.52 0-13.19 1.854-17.01 5.561-3.71 3.599-5.56 8.125-5.56 13.577 0 5.343 1.53 9.433 4.58 12.268 3.16 2.726 7.2 4.089 12.11 4.089 9.92 0 17.77-3.544 23.55-10.632v-24.863zm147.38-162.102v229.658h-49.89v-229.658zm39.92 31.079h49.56v39.585h26.99v34.514h-26.99v72.954c0 10.687 4.31 16.03 12.92 16.03 5.35 0 10.14-.49 14.4-1.472l3.6 36.804c-10.15 2.4-20.34 3.599-30.59 3.599-16.69 0-29.17-4.416-37.46-13.249s-12.43-22.628-12.43-41.385v-73.281h-22.41v-34.514h22.41zm148.36-31.079v90.129c10.14-15.158 23.61-22.737 40.4-22.737 16.9 0 29.94 5.889 39.1 17.666 9.26 11.669 13.9 29.335 13.9 52.998v91.602h-49.73v-91.929c0-11.777-1.8-20.065-5.4-24.863-3.59-4.798-9.7-7.197-18.32-7.197-8.5 0-15.15 2.726-19.95 8.178v115.811h-49.89v-229.658z" fill="#9dc5bb"/><path clip-rule="evenodd" d="m343.653 618.017-72.52 213.756s-211.2251-199.647-235.8672-357.75-10.562-275.378 126.7342-315.265c137.296-39.887 241.498 106.526 241.498 106.526v123.456c-68.294 0-122.508 28.219-122.508 109.348 0 81.128 62.663 119.929 62.663 119.929zm119.694.001 72.52 213.756s211.225-199.647 235.867-357.75c24.642-158.102 10.562-275.377-126.734-315.265-137.296-39.887-241.499 106.526-241.499 106.526v123.456c68.295 0 122.509 28.219 122.509 109.348 0 81.128-62.663 119.929-62.663 119.929z" fill="#9dc5bb" fill-rule="evenodd"/><path d="m271.133 831.773-17.173 18.168 28.325 26.773 12.522-36.909zm72.52-213.756 23.674 8.032 6.386-18.823-16.899-10.465zm-308.3872-143.994 24.7018-3.85zm126.7342-315.265 6.974 24.008zm241.498 106.526h25v-7.988l-4.631-6.508zm0 123.456v25h25v-25zm132.369 443.034-23.674 8.032 12.522 36.909 28.325-26.773zm-72.52-213.756-13.161-21.255-16.9 10.464 6.387 18.823zm308.387-143.994-24.702-3.85zm-126.734-315.265 6.975-24.007zm-241.499 106.526-20.368-14.496-4.632 6.508v7.988zm0 123.456h-25v25h25zm-108.694 451.064 72.52-213.756-47.349-16.064-72.52 213.756zm-284.2429-361.932c13.4294 86.163 76.3539 180.114 132.3739 249.956 28.5 35.53 56.17 65.97 76.706 87.524 10.279 10.788 18.797 19.377 24.772 25.295 2.989 2.96 5.343 5.253 6.966 6.821.811.784 1.44 1.387 1.873 1.802.217.207.385.367.503.479.059.056.106.1.139.132.017.016.031.029.041.039.006.005.011.01.014.012.004.005.008.008 17.181-18.16 17.172-18.169 17.175-18.167 17.176-18.166-.001 0 0 0-.001-.001-.003-.002-.008-.007-.017-.016-.018-.016-.048-.045-.09-.086-.086-.081-.221-.209-.404-.385-.368-.35-.928-.888-1.67-1.605-1.483-1.433-3.691-3.583-6.526-6.392-5.673-5.617-13.849-13.861-23.758-24.26-19.838-20.821-46.514-50.174-73.901-84.318-55.753-69.508-110.7618-154.431-121.9744-226.371zm144.4609-343.122c-76.0915 22.106-120.5696 67.149-140.891 129.57-19.52441 59.973-16.00331 133.78-3.5699 213.552l49.4035-7.7c-12.2088-78.331-13.9687-142.213 1.7104-190.374 14.8822-45.714 46.092-79.252 107.296-97.033zm248.473 130.533c20.369-14.496 20.363-14.504 20.357-14.513-.003-.004-.009-.013-.014-.02-.011-.015-.023-.031-.036-.05-.027-.038-.061-.085-.101-.14-.08-.111-.186-.257-.317-.437-.262-.359-.626-.853-1.09-1.472-.928-1.237-2.256-2.974-3.967-5.129-3.419-4.305-8.385-10.299-14.762-17.312-12.705-13.972-31.257-32.266-54.571-49.324-46.254-33.843-114.74-65.154-193.972-42.136l13.949 48.015c58.065-16.869 110.328 5.082 150.499 34.473 19.899 14.56 35.978 30.376 47.102 42.61 5.538 6.09 9.785 11.223 12.6 14.769 1.407 1.771 2.452 3.14 3.118 4.028.332.444.57.767.711.96.07.096.116.159.137.189.01.014.015.021.013.018-.001-.001-.003-.004-.007-.01-.002-.003-.006-.009-.007-.01-.005-.006-.01-.013 20.358-14.509zm25 123.456v-123.456h-50v123.456zm-122.508 109.348c0-34.486 11.177-53.831 26-65.37 15.947-12.413 40.194-18.978 71.508-18.978v-50c-36.979 0-73.987 7.545-102.221 29.523-29.357 22.853-45.287 58.182-45.287 104.825zm37.663 119.929c13.161-21.256 13.17-21.25 13.18-21.244.002.002.011.007.017.011.011.007.021.013.031.019.018.011.033.021.044.028.023.014.031.019.026.016-.012-.007-.078-.05-.197-.129-.237-.156-.679-.455-1.298-.895-1.24-.883-3.173-2.324-5.571-4.327-4.818-4.022-11.374-10.194-17.943-18.513-13.059-16.541-25.952-41.222-25.952-74.895h-50c0 47.455 18.438 82.738 36.71 105.879 9.097 11.522 18.207 20.122 25.139 25.91 3.476 2.903 6.439 5.126 8.626 6.683 1.094.779 1.998 1.393 2.679 1.844.341.225.626.41.852.555.113.072.211.134.293.187.042.026.08.049.113.07.017.011.033.021.048.03.007.005.018.011.022.013.01.007.02.013 13.181-21.242zm215.889 205.725-72.52-213.756-47.349 16.064 72.52 213.756zm187.49-353.568c-11.212 71.94-66.221 156.864-121.974 226.371-27.387 34.144-54.063 63.497-73.901 84.318-9.909 10.4-18.085 18.643-23.758 24.261-2.835 2.808-5.043 4.958-6.526 6.392-.742.716-1.302 1.254-1.67 1.605-.183.175-.318.304-.404.385-.042.04-.072.069-.09.085-.009.009-.014.014-.017.016-.001.002 0 .001-.001.002.001-.002.004-.004 17.176 18.165 17.173 18.168 17.177 18.165 17.181 18.16.003-.002.008-.007.014-.012.01-.01.024-.023.041-.039.033-.032.08-.076.139-.132.118-.112.286-.272.503-.479.433-.415 1.062-1.018 1.873-1.802 1.623-1.568 3.977-3.861 6.966-6.821 5.975-5.918 14.493-14.507 24.772-25.295 20.536-21.554 48.206-51.994 76.706-87.524 56.02-69.842 118.944-163.793 132.374-249.956zm-109.006-287.407c61.204 17.781 92.414 51.319 107.296 97.033 15.679 48.162 13.919 112.043 1.71 190.374l49.404 7.7c12.433-79.772 15.954-153.579-3.57-213.552-20.321-62.421-64.799-107.464-140.891-129.57zm-234.525 82.518c20.369 14.496 20.364 14.503 20.359 14.509-.001.002-.005.008-.007.01-.004.006-.006.009-.007.01-.002.003.002-.003.013-.018.021-.029.067-.093.137-.189.141-.193.379-.516.711-.96.666-.888 1.711-2.257 3.118-4.028 2.815-3.546 7.062-8.679 12.6-14.769 11.124-12.233 27.203-28.05 47.102-42.609 40.171-29.392 92.434-51.343 150.499-34.474l13.949-48.015c-79.232-23.018-147.718 8.294-193.972 42.136-23.314 17.058-41.866 35.352-54.571 49.324-6.377 7.013-11.343 13.007-14.762 17.312-1.712 2.155-3.039 3.892-3.967 5.129-.464.619-.828 1.113-1.09 1.472-.131.18-.237.326-.317.437-.04.055-.074.102-.101.14-.013.019-.025.036-.036.05-.005.007-.011.016-.014.02-.006.009-.012.017 20.356 14.513zm25 123.456v-123.456h-50v123.456zm122.509 109.348c0-46.643-15.93-81.972-45.287-104.825-28.234-21.978-65.242-29.523-102.222-29.523v50c31.315 0 55.562 6.565 71.509 18.978 14.823 11.54 26 30.884 26 65.37zm-87.663 119.929c13.161 21.255 13.171 21.249 13.181 21.243.004-.003.015-.009.022-.014.015-.009.031-.019.048-.029.033-.022.071-.045.112-.071.083-.052.181-.114.294-.187.226-.144.511-.329.852-.555.681-.451 1.585-1.065 2.679-1.844 2.187-1.557 5.15-3.78 8.626-6.683 6.932-5.788 16.042-14.387 25.139-25.909 18.272-23.142 36.71-58.425 36.71-105.88h-50c0 33.673-12.893 58.355-25.952 74.895-6.569 8.32-13.125 14.491-17.943 18.514-2.398 2.002-4.331 3.443-5.571 4.326-.619.44-1.061.739-1.298.896-.119.078-.185.121-.197.128-.005.004.003-.002.026-.016.011-.007.026-.016.044-.028.01-.006.02-.012.031-.019.005-.003.015-.009.017-.011.01-.005.019-.011 13.18 21.244z" fill="#28262c"/><g stroke="#28262c" stroke-width="48"><path d="m773 451c-49 34.5-133 67-233.5 49"/><path d="m770 344c-64 55.5-138.5 88-246 101"/><path d="m748.5 248.5c-76 77.5-184.5 125-295 147"/><path d="m681 187c-49.5 59.5-168.5 131-260 138.5"/><path d="m34 451.5c49 34.5 133 67 233.5 49"/><path d="m37 344.5c64 55.5 138.5 88 246 101"/><path d="m58.5 249c76 77.5 184.5 125 295 147"/><path d="m126 187.5c49.5 59.5 168.5 131 260 138.5"/></g><path d="m1004.34 400.782 21.43 93.728 2.95 16.848.81.164 3.28-17.012 21.1-93.728h52.18l-51.69 159.321h-50.55l-51.85-159.321z" fill="#7f33e1"/><path d="m1173.32 400.782v159.321h-49.89v-159.321z" fill="#7f33e1"/><path d="m1293.71 461.304c0-16.684-6.87-25.026-20.61-25.026-13.42 0-20.94 9.378-22.58 28.134l.49.818h42.7zm-94.22 24.7v-5.725c0-24.863 6.49-44.819 19.46-59.868 12.98-15.049 31.03-22.519 54.15-22.41 21.59 0 38.49 6.434 50.7 19.302 12.33 12.868 18.49 30.479 18.49 52.834v26.172h-90.95l-.33.818c1.09 8.506 4.47 15.322 10.15 20.447 5.67 5.125 13.03 7.688 22.08 7.688 9.16 0 16.46-.654 21.92-1.963 5.45-1.309 12.92-3.926 22.41-7.852l11.77 30.098c-7.3 5.344-16.52 9.651-27.64 12.922-11.01 3.272-22.68 4.908-35.01 4.908-23.22 0-41.92-7.252-56.1-21.756-14.07-14.503-21.1-33.042-21.1-55.615z" fill="#7f33e1"/><path d="m1474.13 400.782 26.33 92.256h.82l17.18-92.256h45.96l-37.46 159.321h-42.04l-25.84-84.568h-.98l-26.01 84.568h-42.04l-37.46-159.321h45.97l17.5 93.074h.82l26.01-93.074z" fill="#7f33e1"/></svg>