<svg width="1849" height="935" viewBox="0 0 1849 935" fill="none" xmlns="http://www.w3.org/2000/svg">
<path d="M1043.25 233.194V236.302C1043.25 264.873 1052.36 279.159 1070.57 279.159C1088.89 279.159 1098.05 264.873 1098.05 236.302V233.194C1098.05 204.623 1088.89 190.338 1070.57 190.338C1052.36 190.338 1043.25 204.623 1043.25 233.194ZM993.524 236.302V233.194C993.524 208.767 1000.34 189.138 1013.97 174.308C1027.6 159.477 1046.47 152.062 1070.57 152.062C1094.67 152.062 1113.53 159.477 1127.16 174.308C1140.8 189.138 1147.61 208.767 1147.61 233.194V236.302C1147.61 260.838 1140.8 280.522 1127.16 295.353C1113.53 310.074 1094.67 317.435 1070.57 317.435C1046.47 317.435 1027.6 310.074 1013.97 295.353C1000.34 280.631 993.524 260.947 993.524 236.302ZM1255.57 323.814C1240.63 323.814 1228.64 318.089 1219.58 306.639V382.047H1169.69V161.549H1216.31L1218.11 179.051C1227.49 165.42 1239.81 158.604 1255.08 158.604C1274.71 158.604 1289.98 166.074 1300.88 181.014C1311.79 195.954 1317.24 216.074 1317.24 241.373L1317.4 244.481C1317.4 268.908 1311.95 288.264 1301.04 302.55C1290.25 316.726 1275.09 323.814 1255.57 323.814ZM1242.98 196.881C1231.85 196.881 1224 200.916 1219.42 208.985V275.396C1223.78 282.158 1231.69 285.538 1243.14 285.538C1259.39 285.538 1267.51 271.852 1267.51 244.481L1267.67 241.373C1267.67 211.712 1259.44 196.881 1242.98 196.881ZM1428.8 215.201C1428.8 198.517 1421.93 190.174 1408.19 190.174C1394.77 190.174 1387.25 199.553 1385.61 218.309L1386.1 219.127H1428.8V215.201ZM1474.43 299.605V299.442V299.605ZM1334.58 239.901V234.176C1334.58 209.312 1341.07 189.356 1354.04 174.308C1367.02 159.259 1385.07 151.789 1408.19 151.898C1429.78 151.898 1446.68 158.332 1458.89 171.2C1471.22 184.068 1477.38 201.679 1477.38 224.034V250.206H1386.43L1386.1 251.024C1387.19 259.53 1390.57 266.345 1396.24 271.471C1401.91 276.596 1409.28 279.159 1418.33 279.159C1427.49 279.159 1434.79 278.504 1440.25 277.196C1445.7 275.887 1453.17 273.27 1462.66 269.344L1474.43 299.442C1467.13 304.785 1457.91 309.093 1446.79 312.364C1435.77 315.636 1424.11 317.271 1411.78 317.271C1388.56 317.271 1369.85 310.02 1355.68 295.516C1341.61 281.013 1334.58 262.474 1334.58 239.901ZM1497.82 154.679H1544.44L1546.41 177.088C1557.42 160.186 1572.41 151.734 1591.39 151.734C1624.54 151.734 1641.11 172.89 1641.11 215.201V314H1591.39V215.038C1591.39 206.096 1589.53 199.716 1585.83 195.899C1582.23 191.974 1576.34 190.011 1568.16 190.011C1559.98 190.011 1553.06 193.173 1547.39 199.498V314H1497.82V154.679Z" fill="white"/>
<path d="M1060.49 585.342V675.471C1070.63 660.313 1084.09 652.734 1100.89 652.734C1117.79 652.734 1130.82 658.623 1139.98 670.4C1149.25 682.069 1153.89 699.735 1153.89 723.398V815H1104.16V723.071C1104.16 711.294 1102.36 703.006 1098.76 698.208C1095.16 693.41 1089.06 691.011 1080.44 691.011C1071.94 691.011 1065.28 693.737 1060.49 699.189V815H1010.6V585.342H1060.49ZM1271.33 716.201C1271.33 699.517 1264.46 691.174 1250.72 691.174C1237.31 691.174 1229.78 700.553 1228.15 719.309L1228.64 720.127H1271.33V716.201ZM1316.97 800.605V800.442V800.605ZM1177.11 740.901V735.176C1177.11 710.312 1183.6 690.356 1196.58 675.308C1209.56 660.259 1227.6 652.789 1250.72 652.898C1272.31 652.898 1289.22 659.332 1301.43 672.2C1313.75 685.068 1319.91 702.679 1319.91 725.034V751.206H1228.97L1228.64 752.024C1229.73 760.53 1233.11 767.345 1238.78 772.471C1244.45 777.596 1251.81 780.159 1260.86 780.159C1270.02 780.159 1277.33 779.504 1282.78 778.196C1288.24 776.887 1295.71 774.27 1305.19 770.344L1316.97 800.442C1309.66 805.785 1300.45 810.093 1289.33 813.364C1278.31 816.636 1266.64 818.271 1254.32 818.271C1231.09 818.271 1212.39 811.02 1198.21 796.516C1184.15 782.013 1177.11 763.474 1177.11 740.901ZM1384.85 818.435C1369.59 818.435 1357.26 814.073 1347.89 805.349C1338.51 796.625 1333.82 785.011 1333.82 770.508C1333.82 754.368 1339.76 742.1 1351.65 733.704C1363.53 725.198 1381.47 720.945 1405.46 720.945H1423.62V709.658C1423.62 695.591 1417.08 688.557 1403.99 688.557C1392.65 688.557 1386.98 694.119 1386.98 705.242L1338.89 705.078L1338.56 704.26C1337.91 689.43 1343.96 677.216 1356.72 667.62C1369.48 657.914 1386.11 653.062 1406.61 653.062C1427.22 653.062 1443.52 658.023 1455.52 667.947C1467.51 677.87 1473.51 691.883 1473.51 709.985V770.017C1473.51 785.938 1476.35 801.042 1482.02 815.327L1432.94 815.164C1430 809.493 1427.82 803.441 1426.4 797.007C1416.04 811.292 1402.19 818.435 1384.85 818.435ZM1405.95 747.444C1398.43 747.444 1392.76 749.298 1388.94 753.005C1385.23 756.604 1383.38 761.13 1383.38 766.582C1383.38 771.925 1384.91 776.015 1387.96 778.85C1391.12 781.576 1395.16 782.939 1400.07 782.939C1409.99 782.939 1417.84 779.395 1423.62 772.307V747.444H1405.95ZM1553.33 585.342V815H1503.44V585.342H1553.33ZM1593.25 616.421H1642.81V656.006H1669.8V690.52H1642.81V763.474C1642.81 774.161 1647.12 779.504 1655.73 779.504C1661.08 779.504 1665.87 779.014 1670.13 778.032L1673.73 814.836C1663.58 817.236 1653.39 818.435 1643.14 818.435C1626.45 818.435 1613.97 814.019 1605.68 805.186C1597.39 796.353 1593.25 782.558 1593.25 763.801V690.52H1570.84V656.006H1593.25V616.421ZM1741.61 585.342V675.471C1751.75 660.313 1765.22 652.734 1782.01 652.734C1798.91 652.734 1811.95 658.623 1821.11 670.4C1830.37 682.069 1835.01 699.735 1835.01 723.398V815H1785.28V723.071C1785.28 711.294 1783.48 703.006 1779.88 698.208C1776.29 693.41 1770.18 691.011 1761.56 691.011C1753.06 691.011 1746.41 693.737 1741.61 699.189V815H1691.72V585.342H1741.61Z" fill="#9DC5BB"/>
<path d="M1050.34 400.782L1071.77 494.51L1074.72 511.358L1075.53 511.522L1078.81 494.51L1099.91 400.782H1152.09L1100.4 560.103H1049.85L998 400.782H1050.34Z" fill="#7F33E1"/>
<path d="M1219.32 400.782V560.103H1169.43V400.782H1219.32Z" fill="#7F33E1"/>
<path d="M1339.71 461.304C1339.71 444.62 1332.84 436.278 1319.1 436.278C1305.68 436.278 1298.16 445.656 1296.52 464.412L1297.01 465.23H1339.71V461.304ZM1245.49 486.004V480.279C1245.49 455.416 1251.98 435.46 1264.95 420.411C1277.93 405.362 1295.98 397.892 1319.1 398.001C1340.69 398.001 1357.59 404.435 1369.8 417.303C1382.13 430.171 1388.29 447.782 1388.29 470.137V496.309H1297.34L1297.01 497.127C1298.1 505.633 1301.48 512.449 1307.16 517.574C1312.83 522.699 1320.19 525.262 1329.24 525.262C1338.4 525.262 1345.7 524.608 1351.16 523.299C1356.61 521.99 1364.08 519.373 1373.57 515.447L1385.34 545.545C1378.04 550.889 1368.82 555.196 1357.7 558.467C1346.69 561.739 1335.02 563.375 1322.69 563.375C1299.47 563.375 1280.77 556.123 1266.59 541.619C1252.52 527.116 1245.49 508.577 1245.49 486.004Z" fill="#7F33E1"/>
<path d="M1520.13 400.782L1546.46 493.038H1547.28L1564.46 400.782H1610.42L1572.96 560.103H1530.92L1505.08 475.535H1504.1L1478.09 560.103H1436.05L1398.59 400.782H1444.56L1462.06 493.856H1462.88L1488.89 400.782H1520.13Z" fill="#7F33E1"/>
<g filter="url(#filter0_d)">
<mask id="path-4-outside-1" maskUnits="userSpaceOnUse" x="83.6704" y="169.601" width="746" height="644" fill="black">
<rect fill="white" x="83.6704" y="169.601" width="746" height="644"/>
<path fill-rule="evenodd" clip-rule="evenodd" d="M410.876 596.397L333.4 782.507C331 788.272 323.593 789.891 319.034 785.624C193.993 668.573 108.67 543.887 108.67 436.64C108.67 335.396 163.84 228.362 274.144 201.368C384.448 174.373 456.498 250.906 456.498 250.906V358.894C387.264 358.894 328.463 410.111 328.463 480.819C328.463 551.526 386.338 589.598 410.876 596.397ZM502.124 596.398L579.6 782.508C582 788.273 589.407 789.892 593.966 785.624C719.007 668.573 804.33 543.887 804.33 436.64C804.33 335.397 749.16 228.363 638.856 201.369C528.552 174.374 456.502 250.907 456.502 250.907V358.895C525.736 358.895 584.537 410.112 584.537 480.819C584.537 551.526 526.662 589.599 502.124 596.398Z"/>
</mask>
<path fill-rule="evenodd" clip-rule="evenodd" d="M410.876 596.397L333.4 782.507C331 788.272 323.593 789.891 319.034 785.624C193.993 668.573 108.67 543.887 108.67 436.64C108.67 335.396 163.84 228.362 274.144 201.368C384.448 174.373 456.498 250.906 456.498 250.906V358.894C387.264 358.894 328.463 410.111 328.463 480.819C328.463 551.526 386.338 589.598 410.876 596.397ZM502.124 596.398L579.6 782.508C582 788.273 589.407 789.892 593.966 785.624C719.007 668.573 804.33 543.887 804.33 436.64C804.33 335.397 749.16 228.363 638.856 201.369C528.552 174.374 456.502 250.907 456.502 250.907V358.895C525.736 358.895 584.537 410.112 584.537 480.819C584.537 551.526 526.662 589.599 502.124 596.398Z" fill="#B6E8DB"/>
<path d="M333.4 782.507L356.48 792.115L356.48 792.115L333.4 782.507ZM410.876 596.397L433.956 606.005C436.712 599.386 436.493 591.902 433.355 585.455C430.216 579.008 424.461 574.219 417.551 572.305L410.876 596.397ZM319.034 785.624L301.949 803.875L301.949 803.875L319.034 785.624ZM274.144 201.368L268.201 177.084L268.201 177.084L274.144 201.368ZM456.498 250.906H481.498C481.498 244.537 479.067 238.408 474.701 233.77L456.498 250.906ZM456.498 358.894V383.894C470.305 383.894 481.498 372.701 481.498 358.894H456.498ZM579.6 782.508L602.68 772.9L602.68 772.9L579.6 782.508ZM502.124 596.398L495.449 572.305C488.539 574.22 482.784 579.009 479.645 585.456C476.507 591.903 476.288 599.387 479.044 606.006L502.124 596.398ZM593.966 785.624L611.05 803.876L611.051 803.876L593.966 785.624ZM638.856 201.369L644.799 177.085L644.799 177.085L638.856 201.369ZM456.502 250.907L438.299 233.771C433.933 238.409 431.502 244.538 431.502 250.907H456.502ZM456.502 358.895H431.502C431.502 372.702 442.695 383.895 456.502 383.895V358.895ZM356.48 792.115L433.956 606.005L387.796 586.789L310.32 772.899L356.48 792.115ZM301.949 803.875C319.339 820.153 347.424 813.868 356.48 792.115L310.32 772.899C314.575 762.677 327.848 759.629 336.119 767.372L301.949 803.875ZM83.6704 436.64C83.6704 496.691 107.44 559.317 145.755 620.694C184.206 682.29 238.392 744.379 301.949 803.875L336.119 767.372C274.635 709.817 223.639 651.037 188.169 594.217C152.562 537.176 133.67 483.835 133.67 436.64H83.6704ZM268.201 177.084C143.119 207.695 83.6704 328.038 83.6704 436.64H133.67C133.67 342.753 184.56 249.029 280.087 225.651L268.201 177.084ZM456.498 250.906C474.701 233.77 474.693 233.761 474.684 233.752C474.681 233.749 474.672 233.74 474.666 233.733C474.653 233.719 474.639 233.705 474.624 233.689C474.594 233.657 474.56 233.621 474.52 233.58C474.442 233.498 474.346 233.397 474.231 233.279C474.002 233.044 473.701 232.737 473.329 232.365C472.584 231.621 471.554 230.616 470.245 229.395C467.631 226.954 463.892 223.638 459.093 219.815C449.521 212.191 435.578 202.431 417.785 193.614C382.064 175.912 330.398 161.863 268.201 177.084L280.087 225.651C328.193 213.878 367.704 224.598 395.584 238.414C409.592 245.356 420.556 253.043 427.941 258.925C431.62 261.855 434.372 264.307 436.128 265.947C437.005 266.765 437.631 267.378 437.995 267.742C438.178 267.924 438.295 268.044 438.345 268.096C438.37 268.122 438.379 268.131 438.371 268.122C438.367 268.118 438.358 268.109 438.346 268.096C438.339 268.09 438.332 268.082 438.324 268.073C438.32 268.069 438.312 268.061 438.31 268.059C438.303 268.051 438.295 268.043 456.498 250.906ZM481.498 358.894V250.906H431.498V358.894H481.498ZM353.463 480.819C353.463 425.676 399.245 383.894 456.498 383.894V333.894C375.282 333.894 303.463 394.546 303.463 480.819H353.463ZM417.551 572.305C410.292 570.293 393.648 561.837 378.93 545.717C364.765 530.203 353.463 508.798 353.463 480.819H303.463C303.463 523.546 321.098 556.531 342.005 579.43C362.359 601.723 386.922 615.702 404.201 620.489L417.551 572.305ZM602.68 772.9L525.204 586.79L479.044 606.006L556.52 792.116L602.68 772.9ZM576.881 767.373C585.152 759.631 598.425 762.677 602.68 772.9L556.52 792.116C565.576 813.869 593.661 820.154 611.05 803.876L576.881 767.373ZM779.33 436.64C779.33 483.836 760.438 537.177 724.831 594.217C689.361 651.038 638.365 709.818 576.881 767.373L611.051 803.876C674.608 744.38 728.794 682.291 767.245 620.694C805.56 559.317 829.33 496.692 829.33 436.64H779.33ZM632.913 225.652C728.44 249.03 779.33 342.754 779.33 436.64H829.33C829.33 328.039 769.881 207.696 644.799 177.085L632.913 225.652ZM456.502 250.907C474.704 268.044 474.697 268.052 474.69 268.06C474.687 268.062 474.68 268.07 474.676 268.074C474.668 268.083 474.66 268.091 474.654 268.097C474.642 268.11 474.633 268.119 474.629 268.123C474.621 268.132 474.63 268.123 474.655 268.097C474.705 268.045 474.822 267.925 475.005 267.743C475.369 267.379 475.995 266.766 476.872 265.947C478.628 264.308 481.38 261.856 485.059 258.926C492.444 253.044 503.407 245.357 517.416 238.415C545.296 224.599 584.807 213.879 632.913 225.652L644.799 177.085C582.602 161.864 530.936 175.913 495.214 193.615C477.422 202.432 463.479 212.192 453.907 219.816C449.108 223.638 445.369 226.955 442.755 229.396C441.446 230.617 440.416 231.622 439.671 232.366C439.299 232.738 438.998 233.044 438.769 233.28C438.654 233.398 438.558 233.499 438.48 233.581C438.44 233.622 438.406 233.658 438.376 233.69C438.361 233.706 438.347 233.72 438.334 233.734C438.328 233.741 438.319 233.75 438.316 233.753C438.307 233.762 438.299 233.771 456.502 250.907ZM481.502 358.895V250.907H431.502V358.895H481.502ZM609.537 480.819C609.537 394.547 537.717 333.895 456.502 333.895V383.895C513.755 383.895 559.537 425.677 559.537 480.819H609.537ZM508.799 620.49C526.078 615.703 550.641 601.724 570.995 579.431C591.902 556.532 609.537 523.547 609.537 480.819H559.537C559.537 508.799 548.235 530.204 534.07 545.718C519.352 561.838 502.708 570.294 495.449 572.305L508.799 620.49Z" fill="#253E36" mask="url(#path-4-outside-1)"/>
</g>
<defs>
<filter id="filter0_d" x="0" y="90" width="913" height="828" filterUnits="userSpaceOnUse" color-interpolation-filters="sRGB">
<feFlood flood-opacity="0" result="BackgroundImageFix"/>
<feColorMatrix in="SourceAlpha" type="matrix" values="0 0 0 0 0 0 0 0 0 0 0 0 0 0 0 0 0 0 127 0"/>
<feOffset dy="18"/>
<feGaussianBlur stdDeviation="21.5"/>
<feColorMatrix type="matrix" values="0 0 0 0 0 0 0 0 0 0 0 0 0 0 0 0 0 0 0.13 0"/>
<feBlend mode="normal" in2="BackgroundImageFix" result="effect1_dropShadow"/>
<feBlend mode="normal" in="SourceGraphic" in2="effect1_dropShadow" result="shape"/>
</filter>
</defs>
</svg>
