<svg width="1845" height="935" viewBox="0 0 1845 935" fill="none" xmlns="http://www.w3.org/2000/svg">
<path d="M1039.25 233.194V236.302C1039.25 264.873 1048.36 279.159 1066.57 279.159C1084.89 279.159 1094.05 264.873 1094.05 236.302V233.194C1094.05 204.623 1084.89 190.338 1066.57 190.338C1048.36 190.338 1039.25 204.623 1039.25 233.194ZM989.524 236.302V233.194C989.524 208.767 996.34 189.138 1009.97 174.308C1023.6 159.477 1042.47 152.062 1066.57 152.062C1090.67 152.062 1109.53 159.477 1123.16 174.308C1136.8 189.138 1143.61 208.767 1143.61 233.194V236.302C1143.61 260.838 1136.8 280.522 1123.16 295.353C1109.53 310.074 1090.67 317.435 1066.57 317.435C1042.47 317.435 1023.6 310.074 1009.97 295.353C996.34 280.631 989.524 260.947 989.524 236.302ZM1251.57 323.814C1236.63 323.814 1224.64 318.089 1215.58 306.639V382.047H1165.69V161.549H1212.31L1214.11 179.051C1223.49 165.42 1235.81 158.604 1251.08 158.604C1270.71 158.604 1285.98 166.074 1296.88 181.014C1307.79 195.954 1313.24 216.074 1313.24 241.373L1313.4 244.481C1313.4 268.908 1307.95 288.264 1297.04 302.55C1286.25 316.726 1271.09 323.814 1251.57 323.814ZM1238.98 196.881C1227.85 196.881 1220 200.916 1215.42 208.985V275.396C1219.78 282.158 1227.69 285.538 1239.14 285.538C1255.39 285.538 1263.51 271.852 1263.51 244.481L1263.67 241.373C1263.67 211.712 1255.44 196.881 1238.98 196.881ZM1424.8 215.201C1424.8 198.517 1417.93 190.174 1404.19 190.174C1390.77 190.174 1383.25 199.553 1381.61 218.309L1382.1 219.127H1424.8V215.201ZM1470.43 299.605V299.442V299.605ZM1330.58 239.901V234.176C1330.58 209.312 1337.07 189.356 1350.04 174.308C1363.02 159.259 1381.07 151.789 1404.19 151.898C1425.78 151.898 1442.68 158.332 1454.89 171.2C1467.22 184.068 1473.38 201.679 1473.38 224.034V250.206H1382.43L1382.1 251.024C1383.19 259.53 1386.57 266.345 1392.24 271.471C1397.91 276.596 1405.28 279.159 1414.33 279.159C1423.49 279.159 1430.79 278.504 1436.25 277.196C1441.7 275.887 1449.17 273.27 1458.66 269.344L1470.43 299.442C1463.13 304.785 1453.91 309.093 1442.79 312.364C1431.77 315.636 1420.11 317.271 1407.78 317.271C1384.56 317.271 1365.85 310.02 1351.68 295.516C1337.61 281.013 1330.58 262.474 1330.58 239.901ZM1493.82 154.679H1540.44L1542.41 177.088C1553.42 160.186 1568.41 151.734 1587.39 151.734C1620.54 151.734 1637.11 172.89 1637.11 215.201V314H1587.39V215.038C1587.39 206.096 1585.53 199.716 1581.83 195.899C1578.23 191.974 1572.34 190.011 1564.16 190.011C1555.98 190.011 1549.06 193.173 1543.39 199.498V314H1493.82V154.679Z" fill="#28262C"/>
<path d="M1056.49 585.342V675.471C1066.63 660.313 1080.09 652.734 1096.89 652.734C1113.79 652.734 1126.82 658.623 1135.98 670.4C1145.25 682.069 1149.89 699.735 1149.89 723.398V815H1100.16V723.071C1100.16 711.294 1098.36 703.006 1094.76 698.208C1091.16 693.41 1085.06 691.011 1076.44 691.011C1067.94 691.011 1061.28 693.737 1056.49 699.189V815H1006.6V585.342H1056.49ZM1267.33 716.201C1267.33 699.517 1260.46 691.174 1246.72 691.174C1233.31 691.174 1225.78 700.553 1224.15 719.309L1224.64 720.127H1267.33V716.201ZM1312.97 800.605V800.442V800.605ZM1173.11 740.901V735.176C1173.11 710.312 1179.6 690.356 1192.58 675.308C1205.56 660.259 1223.6 652.789 1246.72 652.898C1268.31 652.898 1285.22 659.332 1297.43 672.2C1309.75 685.068 1315.91 702.679 1315.91 725.034V751.206H1224.97L1224.64 752.024C1225.73 760.53 1229.11 767.345 1234.78 772.471C1240.45 777.596 1247.81 780.159 1256.86 780.159C1266.02 780.159 1273.33 779.504 1278.78 778.196C1284.24 776.887 1291.71 774.27 1301.19 770.344L1312.97 800.442C1305.66 805.785 1296.45 810.093 1285.33 813.364C1274.31 816.636 1262.64 818.271 1250.32 818.271C1227.09 818.271 1208.39 811.02 1194.21 796.516C1180.15 782.013 1173.11 763.474 1173.11 740.901ZM1380.85 818.435C1365.59 818.435 1353.26 814.073 1343.89 805.349C1334.51 796.625 1329.82 785.011 1329.82 770.508C1329.82 754.368 1335.76 742.1 1347.65 733.704C1359.53 725.198 1377.47 720.945 1401.46 720.945H1419.62V709.658C1419.62 695.591 1413.08 688.557 1399.99 688.557C1388.65 688.557 1382.98 694.119 1382.98 705.242L1334.89 705.078L1334.56 704.26C1333.91 689.43 1339.96 677.216 1352.72 667.62C1365.48 657.914 1382.11 653.062 1402.61 653.062C1423.22 653.062 1439.52 658.023 1451.52 667.947C1463.51 677.87 1469.51 691.883 1469.51 709.985V770.017C1469.51 785.938 1472.35 801.042 1478.02 815.327L1428.94 815.164C1426 809.493 1423.82 803.441 1422.4 797.007C1412.04 811.292 1398.19 818.435 1380.85 818.435ZM1401.95 747.444C1394.43 747.444 1388.76 749.298 1384.94 753.005C1381.23 756.604 1379.38 761.13 1379.38 766.582C1379.38 771.925 1380.91 776.015 1383.96 778.85C1387.12 781.576 1391.16 782.939 1396.07 782.939C1405.99 782.939 1413.84 779.395 1419.62 772.307V747.444H1401.95ZM1549.33 585.342V815H1499.44V585.342H1549.33ZM1589.25 616.421H1638.81V656.006H1665.8V690.52H1638.81V763.474C1638.81 774.161 1643.12 779.504 1651.73 779.504C1657.08 779.504 1661.87 779.014 1666.13 778.032L1669.73 814.836C1659.58 817.236 1649.39 818.435 1639.14 818.435C1622.45 818.435 1609.97 814.019 1601.68 805.186C1593.39 796.353 1589.25 782.558 1589.25 763.801V690.52H1566.84V656.006H1589.25V616.421ZM1737.61 585.342V675.471C1747.75 660.313 1761.22 652.734 1778.01 652.734C1794.91 652.734 1807.95 658.623 1817.11 670.4C1826.37 682.069 1831.01 699.735 1831.01 723.398V815H1781.28V723.071C1781.28 711.294 1779.48 703.006 1775.88 698.208C1772.29 693.41 1766.18 691.011 1757.56 691.011C1749.06 691.011 1742.41 693.737 1737.61 699.189V815H1687.72V585.342H1737.61Z" fill="#9DC5BB"/>
<path d="M1046.34 400.782L1067.77 494.51L1070.72 511.358L1071.53 511.522L1074.81 494.51L1095.91 400.782H1148.09L1096.4 560.103H1045.85L994 400.782H1046.34Z" fill="#7F33E1"/>
<path d="M1215.32 400.782V560.103H1165.43V400.782H1215.32Z" fill="#7F33E1"/>
<path d="M1335.71 461.304C1335.71 444.62 1328.84 436.278 1315.1 436.278C1301.68 436.278 1294.16 445.656 1292.52 464.412L1293.01 465.23H1335.71V461.304ZM1241.49 486.004V480.279C1241.49 455.416 1247.98 435.46 1260.95 420.411C1273.93 405.362 1291.98 397.892 1315.1 398.001C1336.69 398.001 1353.59 404.435 1365.8 417.303C1378.13 430.171 1384.29 447.782 1384.29 470.137V496.309H1293.34L1293.01 497.127C1294.1 505.633 1297.48 512.449 1303.16 517.574C1308.83 522.699 1316.19 525.262 1325.24 525.262C1334.4 525.262 1341.7 524.608 1347.16 523.299C1352.61 521.99 1360.08 519.373 1369.57 515.447L1381.34 545.545C1374.04 550.889 1364.82 555.196 1353.7 558.467C1342.69 561.739 1331.02 563.375 1318.69 563.375C1295.47 563.375 1276.77 556.123 1262.59 541.619C1248.52 527.116 1241.49 508.577 1241.49 486.004Z" fill="#7F33E1"/>
<path d="M1516.13 400.782L1542.46 493.038H1543.28L1560.46 400.782H1606.42L1568.96 560.103H1526.92L1501.08 475.535H1500.1L1474.09 560.103H1432.05L1394.59 400.782H1440.56L1458.06 493.856H1458.88L1484.89 400.782H1516.13Z" fill="#7F33E1"/>
<g filter="url(#filter0_d)">
<mask id="path-4-outside-1" maskUnits="userSpaceOnUse" x="83.6709" y="164.288" width="746" height="644" fill="black">
<rect fill="white" x="83.6709" y="164.288" width="746" height="644"/>
<path fill-rule="evenodd" clip-rule="evenodd" d="M410.877 591.085L333.4 777.195C331 782.96 323.594 784.579 319.035 780.311C193.993 663.26 108.671 538.574 108.671 431.327C108.671 330.083 163.84 223.05 274.144 196.055C384.448 169.061 456.499 245.594 456.499 245.594V353.581C387.264 353.581 328.463 404.799 328.463 475.506C328.463 546.213 386.338 584.286 410.877 591.085ZM502.124 591.085L579.601 777.196C582.001 782.961 589.407 784.58 593.966 780.312C719.008 663.261 804.33 538.575 804.33 431.328C804.33 330.084 749.161 223.051 638.857 196.056C528.553 169.062 456.502 245.595 456.502 245.595V353.582C525.737 353.582 584.538 404.8 584.538 475.507C584.538 546.214 526.663 584.287 502.124 591.085Z"/>
</mask>
<path fill-rule="evenodd" clip-rule="evenodd" d="M410.877 591.085L333.4 777.195C331 782.96 323.594 784.579 319.035 780.311C193.993 663.26 108.671 538.574 108.671 431.327C108.671 330.083 163.84 223.05 274.144 196.055C384.448 169.061 456.499 245.594 456.499 245.594V353.581C387.264 353.581 328.463 404.799 328.463 475.506C328.463 546.213 386.338 584.286 410.877 591.085ZM502.124 591.085L579.601 777.196C582.001 782.961 589.407 784.58 593.966 780.312C719.008 663.261 804.33 538.575 804.33 431.328C804.33 330.084 749.161 223.051 638.857 196.056C528.553 169.062 456.502 245.595 456.502 245.595V353.582C525.737 353.582 584.538 404.8 584.538 475.507C584.538 546.214 526.663 584.287 502.124 591.085Z" fill="#9DC5BB"/>
<path d="M333.4 777.195L356.48 786.803L356.48 786.803L333.4 777.195ZM410.877 591.085L433.957 600.693C436.712 594.073 436.493 586.589 433.355 580.142C430.217 573.696 424.462 568.907 417.552 566.992L410.877 591.085ZM319.035 780.311L301.95 798.562L301.95 798.562L319.035 780.311ZM274.144 196.055L268.201 171.772L268.201 171.772L274.144 196.055ZM456.499 245.594H481.499C481.499 239.224 479.067 233.095 474.701 228.457L456.499 245.594ZM456.499 353.581V378.581C470.306 378.581 481.499 367.389 481.499 353.581H456.499ZM579.601 777.196L602.681 767.588L602.681 767.587L579.601 777.196ZM502.124 591.085L495.449 566.993C488.539 568.907 482.784 573.696 479.646 580.143C476.508 586.59 476.288 594.074 479.044 600.693L502.124 591.085ZM593.966 780.312L611.051 798.563L611.051 798.563L593.966 780.312ZM638.857 196.056L644.8 171.773L644.8 171.773L638.857 196.056ZM456.502 245.595L438.3 228.458C433.933 233.096 431.502 239.225 431.502 245.595H456.502ZM456.502 353.582H431.502C431.502 367.389 442.695 378.582 456.502 378.582V353.582ZM356.48 786.803L433.957 600.693L387.797 581.476L310.32 767.587L356.48 786.803ZM301.95 798.562C319.339 814.84 347.425 808.555 356.48 786.803L310.32 767.587C314.576 757.364 327.848 754.317 336.12 762.06L301.95 798.562ZM83.6709 431.327C83.6709 491.379 107.441 554.004 145.755 615.381C184.207 676.978 238.393 739.067 301.95 798.562L336.12 762.06C274.635 704.504 223.64 645.725 188.169 588.904C152.562 531.864 133.671 478.522 133.671 431.327H83.6709ZM268.201 171.772C143.12 202.383 83.6709 322.726 83.6709 431.327H133.671C133.671 337.441 184.561 243.717 280.087 220.339L268.201 171.772ZM456.499 245.594C474.701 228.457 474.693 228.449 474.685 228.44C474.682 228.436 474.673 228.427 474.666 228.42C474.654 228.407 474.64 228.392 474.625 228.376C474.595 228.345 474.56 228.308 474.521 228.267C474.443 228.185 474.346 228.085 474.232 227.967C474.003 227.731 473.702 227.424 473.329 227.052C472.585 226.309 471.554 225.304 470.246 224.082C467.631 221.642 463.892 218.325 459.093 214.503C449.521 206.878 435.578 197.118 417.786 188.301C382.065 170.599 330.399 156.55 268.201 171.772L280.087 220.339C328.193 208.566 367.705 219.286 395.585 233.102C409.593 240.044 420.557 247.73 427.941 253.612C431.621 256.543 434.372 258.995 436.129 260.634C437.006 261.453 437.631 262.065 437.996 262.43C438.178 262.612 438.295 262.731 438.346 262.783C438.371 262.809 438.379 262.819 438.371 262.81C438.367 262.806 438.359 262.797 438.346 262.784C438.34 262.777 438.333 262.769 438.324 262.761C438.32 262.756 438.313 262.749 438.311 262.746C438.304 262.739 438.296 262.731 456.499 245.594ZM481.499 353.581V245.594H431.499V353.581H481.499ZM353.463 475.506C353.463 420.364 399.245 378.581 456.499 378.581V328.581C375.283 328.581 303.463 389.234 303.463 475.506H353.463ZM417.552 566.992C410.292 564.981 393.648 556.524 378.93 540.404C364.766 524.89 353.463 503.486 353.463 475.506H303.463C303.463 518.233 321.099 551.219 342.006 574.118C362.36 596.41 386.923 610.39 404.202 615.177L417.552 566.992ZM602.681 767.587L525.204 581.477L479.044 600.693L556.521 786.804L602.681 767.587ZM576.881 762.061C585.153 754.318 598.425 757.365 602.681 767.588L556.521 786.803C565.576 808.556 593.662 814.841 611.051 798.563L576.881 762.061ZM779.33 431.328C779.33 478.523 760.439 531.864 724.831 588.905C689.361 645.726 638.366 704.505 576.881 762.061L611.051 798.563C674.608 739.068 728.794 676.979 767.246 615.382C805.56 554.005 829.33 491.38 829.33 431.328H779.33ZM632.914 220.339C728.44 243.717 779.33 337.442 779.33 431.328H829.33C829.33 322.727 769.881 202.384 644.8 171.773L632.914 220.339ZM456.502 245.595C474.705 262.731 474.697 262.74 474.69 262.747C474.688 262.75 474.681 262.757 474.677 262.761C474.668 262.77 474.661 262.778 474.655 262.785C474.642 262.798 474.634 262.807 474.63 262.811C474.622 262.819 474.63 262.81 474.655 262.784C474.706 262.732 474.823 262.613 475.005 262.431C475.37 262.066 475.995 261.454 476.872 260.635C478.628 258.996 481.38 256.544 485.06 253.613C492.444 247.731 503.408 240.045 517.416 233.103C545.296 219.287 584.808 208.567 632.914 220.339L644.8 171.773C582.602 156.551 530.936 170.6 495.215 188.302C477.422 197.119 463.48 206.879 453.908 214.504C449.109 218.326 445.37 221.643 442.755 224.083C441.447 225.305 440.416 226.31 439.672 227.053C439.299 227.425 438.998 227.732 438.769 227.968C438.655 228.086 438.558 228.186 438.48 228.268C438.441 228.309 438.406 228.346 438.376 228.377C438.361 228.393 438.347 228.408 438.334 228.421C438.328 228.428 438.319 228.437 438.316 228.441C438.308 228.45 438.3 228.458 456.502 245.595ZM481.502 353.582V245.595H431.502V353.582H481.502ZM609.538 475.507C609.538 389.235 537.718 328.582 456.502 328.582V378.582C513.756 378.582 559.538 420.365 559.538 475.507H609.538ZM508.799 615.178C526.078 610.39 550.641 596.411 570.995 574.118C591.902 551.22 609.538 518.234 609.538 475.507H559.538C559.538 503.487 548.235 524.891 534.071 540.405C519.353 556.525 502.709 564.982 495.449 566.993L508.799 615.178Z" fill="#E6F0ED" mask="url(#path-4-outside-1)"/>
</g>
<defs>
<filter id="filter0_d" x="0" y="84.6875" width="913" height="828" filterUnits="userSpaceOnUse" color-interpolation-filters="sRGB">
<feFlood flood-opacity="0" result="BackgroundImageFix"/>
<feColorMatrix in="SourceAlpha" type="matrix" values="0 0 0 0 0 0 0 0 0 0 0 0 0 0 0 0 0 0 127 0"/>
<feOffset dy="18"/>
<feGaussianBlur stdDeviation="21.5"/>
<feColorMatrix type="matrix" values="0 0 0 0 0 0 0 0 0 0 0 0 0 0 0 0 0 0 0.13 0"/>
<feBlend mode="normal" in2="BackgroundImageFix" result="effect1_dropShadow"/>
<feBlend mode="normal" in="SourceGraphic" in2="effect1_dropShadow" result="shape"/>
</filter>
</defs>
</svg>
