<svg fill="none" height="829" viewBox="0 0 1693 829" width="1693" xmlns="http://www.w3.org/2000/svg" xmlns:xlink="http://www.w3.org/1999/xlink"><filter id="a" color-interpolation-filters="sRGB" filterUnits="userSpaceOnUse" height="828" width="913" x="0" y=".6875"><feFlood flood-opacity="0" result="BackgroundImageFix"/><feColorMatrix in="SourceAlpha" result="hardAlpha" type="matrix" values="0 0 0 0 0 0 0 0 0 0 0 0 0 0 0 0 0 0 127 0"/><feOffset dy="18"/><feGaussianBlur stdDeviation="21.5"/><feColorMatrix type="matrix" values="0 0 0 0 0 0 0 0 0 0 0 0 0 0 0 0 0 0 0.13 0"/><feBlend in2="BackgroundImageFix" mode="normal" result="effect1_dropShadow"/><feBlend in="SourceGraphic" in2="effect1_dropShadow" mode="normal" result="shape"/></filter><mask id="b" fill="#000" height="644" maskUnits="userSpaceOnUse" width="746" x="83.6709" y="80.2881"><path d="m83.6709 80.2881h746v644h-746z" fill="#fff"/><path clip-rule="evenodd" d="m410.877 507.085-77.477 186.11c-2.4 5.765-9.806 7.384-14.365 3.116-125.042-117.051-210.364-241.737-210.364-348.984 0-101.244 55.169-208.277 165.473-235.272 110.304-26.9943 182.355 49.539 182.355 49.539v107.987c-69.235 0-128.036 51.218-128.036 121.925s57.875 108.78 82.414 115.579zm91.247 0 77.477 186.111c2.4 5.765 9.806 7.384 14.365 3.116 125.042-117.051 210.364-241.737 210.364-348.984 0-101.244-55.169-208.277-165.473-235.272-110.304-26.9944-182.355 49.539-182.355 49.539v107.987c69.235 0 128.036 51.218 128.036 121.925s-57.875 108.78-82.414 115.578z" fill="#000" fill-rule="evenodd"/></mask><g fill="#28262c"><path d="m994.835 182.821v2.74c0 25.186 8.025 37.779 24.085 37.779 16.15 0 24.22-12.593 24.22-37.779v-2.74c0-25.186-8.07-37.779-24.22-37.779-16.06 0-24.085 12.593-24.085 37.779zm-43.835 2.74v-2.74c0-21.533 6.008-38.836 18.024-51.91 12.016-13.073 28.647-19.61 49.896-19.61 21.24 0 37.87 6.537 49.89 19.61 12.01 13.074 18.02 30.377 18.02 51.91v2.74c0 21.629-6.01 38.98-18.02 52.054-12.02 12.977-28.65 19.466-49.89 19.466-21.249 0-37.88-6.489-49.896-19.466s-18.024-30.329-18.024-52.054z"/><path d="m1182 262.705c-13.17 0-23.75-5.047-31.72-15.141v66.474h-43.98v-194.374h41.09l1.59 15.429c8.27-12.016 19.13-18.024 32.59-18.024 17.3 0 30.76 6.585 40.37 19.754 9.61 13.17 14.42 30.906 14.42 53.208l.14 2.74c0 21.533-4.8 38.596-14.42 51.189-9.51 12.496-22.87 18.745-40.08 18.745zm-11.1-111.895c-9.81 0-16.73 3.557-20.77 10.671v58.542c3.85 5.96 10.82 8.94 20.91 8.94 14.32 0 21.48-12.064 21.48-36.192l.15-2.74c0-26.147-7.26-39.221-21.77-39.221z"/><path d="m1334.7 166.96c0-14.708-6.06-22.062-18.17-22.062-11.82 0-18.46 8.267-19.9 24.802l.44.721h37.63zm-83.06 21.773v-5.047c0-21.917 5.72-39.509 17.16-52.775 11.44-13.265 27.35-19.85 47.73-19.754 19.04 0 33.94 5.672 44.7 17.015 10.86 11.343 16.3 26.868 16.3 46.574v23.071h-80.18l-.28.721c.96 7.499 3.94 13.507 8.94 18.025 4.99 4.518 11.48 6.777 19.46 6.777 8.08 0 14.52-.577 19.32-1.731 4.81-1.153 11.39-3.46 19.76-6.921l10.38 26.532c-6.44 4.71-14.56 8.507-24.37 11.391-9.71 2.884-19.99 4.326-30.86 4.326-20.47 0-36.96-6.393-49.45-19.178-12.41-12.785-18.61-29.127-18.61-49.026z"/><path d="m1395.55 113.608h41.1l1.73 19.755c9.7-14.9 22.92-22.35 39.65-22.35 29.22 0 43.83 18.649 43.83 55.947v87.093h-43.83v-87.237c0-7.883-1.64-13.506-4.9-16.871-3.18-3.461-8.37-5.191-15.58-5.191s-13.31 2.788-18.31 8.363v100.936h-43.69z"/></g><g fill="#9dc5bb"><path d="m1010.03 493.246v79.451c8.94-13.362 20.81-20.043 35.61-20.043 14.9 0 26.39 5.191 34.47 15.573 8.17 10.286 12.25 25.859 12.25 46.719v80.748h-43.83v-81.037c0-10.382-1.59-17.687-4.76-21.917s-8.56-6.345-16.15-6.345c-7.5 0-13.36 2.404-17.59 7.21v102.089h-43.982v-202.448z"/><path d="m1195.89 608.601c0-14.708-6.05-22.061-18.17-22.061-11.82 0-18.45 8.267-19.89 24.801l.43.721h37.63zm-83.05 21.774v-5.047c0-21.918 5.72-39.509 17.16-52.775s27.35-19.851 47.72-19.755c19.04 0 33.94 5.672 44.7 17.015 10.87 11.343 16.3 26.868 16.3 46.575v23.071h-80.17l-.29.721c.96 7.498 3.94 13.506 8.94 18.024s11.49 6.777 19.46 6.777c8.08 0 14.52-.577 19.33-1.73 4.8-1.154 11.39-3.461 19.75-6.922l10.38 26.532c-6.44 4.71-14.56 8.508-24.37 11.391-9.7 2.884-19.99 4.326-30.85 4.326-20.48 0-36.96-6.392-49.46-19.178-12.4-12.785-18.6-29.127-18.6-49.025z"/><path d="m1295.96 698.722c-13.45 0-24.32-3.845-32.58-11.535-8.27-7.69-12.4-17.928-12.4-30.713 0-14.227 5.23-25.042 15.71-32.444 10.48-7.498 26.29-11.247 47.44-11.247h16.01v-9.95c0-12.4-5.77-18.601-17.31-18.601-9.99 0-14.99 4.903-14.99 14.708l-42.39-.144-.29-.721c-.58-13.073 4.76-23.84 16-32.299 11.25-8.556 25.91-12.834 43.98-12.834 18.17 0 32.54 4.374 43.12 13.122 10.57 8.748 15.86 21.1 15.86 37.058v52.919c0 14.035 2.5 27.349 7.49 39.942l-43.25-.144c-2.6-4.999-4.52-10.334-5.77-16.006-9.13 12.593-21.34 18.889-36.63 18.889zm18.6-62.58c-6.63 0-11.63 1.634-14.99 4.903-3.27 3.172-4.9 7.162-4.9 11.968 0 4.71 1.34 8.315 4.03 10.815 2.79 2.403 6.35 3.604 10.67 3.604 8.75 0 15.67-3.124 20.77-9.372v-21.918z"/><path d="m1444.48 493.246v202.448h-43.98v-202.448z"/><path d="m1479.67 520.643h43.69v34.895h23.79v30.425h-23.79v64.31c0 9.421 3.79 14.131 11.39 14.131 4.71 0 8.94-.432 12.69-1.297l3.17 32.443c-8.94 2.115-17.93 3.172-26.96 3.172-14.71 0-25.72-3.893-33.02-11.679-7.31-7.787-10.96-19.947-10.96-36.481v-64.599h-19.76v-30.425h19.76z"/><path d="m1610.45 493.246v79.451c8.94-13.362 20.81-20.043 35.62-20.043 14.9 0 26.38 5.191 34.46 15.573 8.17 10.286 12.26 25.859 12.26 46.719v80.748h-43.84v-81.037c0-10.382-1.59-17.687-4.76-21.917s-8.55-6.345-16.15-6.345c-7.5 0-13.36 2.404-17.59 7.21v102.089h-43.98v-202.448z"/></g><path d="m1001.09 330.352 18.89 82.623 2.59 14.852.72.144 2.89-14.996 18.6-82.623h46l-45.57 140.445h-44.56l-45.706-140.445z" fill="#7f33e1"/><path d="m1150.04 330.352v140.445h-43.98v-140.445z" fill="#7f33e1"/><path d="m1256.17 383.704c0-14.708-6.06-22.062-18.17-22.062-11.83 0-18.46 8.267-19.9 24.801l.43.721h37.64zm-83.06 21.773v-5.047c0-21.917 5.72-39.509 17.16-52.775s27.35-19.851 47.73-19.755c19.03 0 33.93 5.672 44.7 17.015 10.86 11.344 16.29 26.868 16.29 46.575v23.071h-80.17l-.29.721c.96 7.498 3.94 13.506 8.94 18.024s11.49 6.777 19.47 6.777c8.07 0 14.51-.576 19.32-1.73s11.39-3.461 19.75-6.921l10.39 26.531c-6.45 4.711-14.57 8.508-24.37 11.392-9.71 2.884-20 4.326-30.86 4.326-20.48 0-36.96-6.393-49.46-19.178-12.4-12.785-18.6-29.127-18.6-49.026z" fill="#7f33e1"/><path d="m1415.21 330.352 23.22 81.325h.72l15.14-81.325h40.52l-33.02 140.445h-37.06l-22.78-74.549h-.87l-22.93 74.549h-37.05l-33.02-140.445h40.51l15.43 82.046h.72l22.93-82.046z" fill="#7f33e1"/><g filter="url(#a)"><path clip-rule="evenodd" d="m410.877 507.085-77.477 186.11c-2.4 5.765-9.806 7.384-14.365 3.116-125.042-117.051-210.364-241.737-210.364-348.984 0-101.244 55.169-208.277 165.473-235.272 110.304-26.9943 182.355 49.539 182.355 49.539v107.987c-69.235 0-128.036 51.218-128.036 121.925s57.875 108.78 82.414 115.579zm91.247 0 77.477 186.111c2.4 5.765 9.806 7.384 14.365 3.116 125.042-117.051 210.364-241.737 210.364-348.984 0-101.244-55.169-208.277-165.473-235.272-110.304-26.9944-182.355 49.539-182.355 49.539v107.987c69.235 0 128.036 51.218 128.036 121.925s-57.875 108.78-82.414 115.578z" fill="#9dc5bb" fill-rule="evenodd"/><path d="m333.4 693.195 23.08 9.608zm77.477-186.11 23.08 9.608c2.755-6.62 2.536-14.104-.602-20.551-3.138-6.446-8.893-11.235-15.803-13.15zm-91.842 189.226-17.085 18.251zm-44.891-584.256-5.943-24.2832zm182.355 49.539h25c0-6.37-2.432-12.499-6.798-17.137zm0 107.987v25c13.807 0 25-11.192 25-25zm123.102 423.615 23.08-9.608v-.001zm-77.477-186.111-6.675-24.092c-6.91 1.914-12.665 6.703-15.803 13.15s-3.358 13.931-.602 20.55zm91.842 189.227 17.085 18.251zm44.891-584.256 5.943-24.2833zm-182.355 49.539-18.202-17.137c-4.367 4.638-6.798 10.767-6.798 17.137zm0 107.987h-25c0 13.807 11.193 25 25 25zm-100.022 433.221 77.477-186.11-46.16-19.216-77.477 186.11zm-54.53 11.759c17.389 16.278 45.475 9.993 54.53-11.759l-46.16-19.216c4.256-10.223 17.528-13.27 25.8-5.527zm-218.2791-367.235c0 60.052 23.7701 122.677 62.0841 184.054 38.452 61.597 92.638 123.686 156.195 183.181l34.17-36.502c-61.485-57.556-112.48-116.335-147.951-173.156-35.607-57.04-54.498-110.382-54.498-157.577zm184.5301-259.5552c-125.081 30.6112-184.5301 150.9542-184.5301 259.5552h50.0001c0-93.886 50.89-187.61 146.416-210.988zm188.298 73.8222c18.202-17.137 18.194-17.145 18.186-17.154-.003-.004-.012-.013-.019-.02-.012-.013-.026-.028-.041-.044-.03-.031-.065-.068-.104-.109-.078-.082-.175-.182-.289-.3-.229-.236-.53-.543-.903-.915-.744-.743-1.775-1.748-3.083-2.97-2.615-2.44-6.354-5.757-11.153-9.579-9.572-7.625-23.515-17.385-41.307-26.202-35.721-17.7016-87.387-31.7507-149.585-16.5292l11.886 48.5672c48.106-11.773 87.618-1.053 115.498 12.763 14.008 6.942 24.972 14.628 32.356 20.51 3.68 2.931 6.431 5.383 8.188 7.022.877.819 1.502 1.431 1.867 1.796.182.182.299.301.35.353.025.026.033.036.025.027-.004-.004-.012-.013-.025-.026-.006-.007-.013-.015-.022-.023-.004-.005-.011-.012-.013-.015-.007-.007-.015-.015 18.188-17.152zm25 107.987v-107.987h-50v107.987zm-128.036 121.925c0-55.142 45.782-96.925 103.036-96.925v-50c-81.216 0-153.036 60.653-153.036 146.925zm64.089 91.486c-7.26-2.011-23.904-10.468-38.622-26.588-14.164-15.514-25.467-36.918-25.467-64.898h-50c0 42.727 17.636 75.713 38.543 98.611 20.354 22.293 44.917 36.273 62.196 41.06zm185.129 200.595-77.477-186.11-46.16 19.216 77.477 186.111zm-25.8-5.526c8.272-7.743 21.544-4.696 25.8 5.527l-46.16 19.215c9.055 21.753 37.141 28.038 54.53 11.76zm202.449-330.733c0 47.195-18.891 100.536-54.499 157.577-35.47 56.821-86.465 115.6-147.95 173.156l34.17 36.502c63.557-59.495 117.743-121.584 156.195-183.181 38.314-61.377 62.084-124.002 62.084-184.054zm-146.416-210.989c95.526 23.378 146.416 117.103 146.416 210.989h50c0-108.601-59.449-228.944-184.53-259.5553zm-176.412 25.256c18.203 17.136 18.195 17.145 18.188 17.152-.002.003-.009.01-.013.014-.009.009-.016.017-.022.024-.013.013-.021.022-.025.026-.008.008 0-.001.025-.027.051-.052.168-.171.35-.353.365-.365.99-.977 1.867-1.796 1.756-1.639 4.508-4.091 8.188-7.022 7.384-5.882 18.348-13.568 32.356-20.51 27.88-13.816 67.392-24.536 115.498-12.764l11.886-48.5663c-62.198-15.2215-113.864-1.1723-149.585 16.5293-17.793 8.817-31.735 18.577-41.307 26.202-4.799 3.822-8.538 7.139-11.153 9.579-1.308 1.222-2.339 2.227-3.083 2.97-.373.372-.674.679-.903.915-.114.118-.211.218-.289.3-.039.041-.074.078-.104.109-.015.016-.029.031-.042.044-.006.007-.015.016-.018.02-.008.009-.016.017 18.186 17.154zm25 107.987v-107.987h-50v107.987zm128.036 121.925c0-86.272-71.82-146.925-153.036-146.925v50c57.254 0 103.036 41.783 103.036 96.925zm-100.739 139.671c17.279-4.788 41.842-18.767 62.196-41.06 20.907-22.898 38.543-55.884 38.543-98.611h-50c0 27.98-11.303 49.384-25.467 64.898-14.718 16.12-31.362 24.577-38.622 26.588z" fill="#e6f0ed" mask="url(#b)"/></g></svg>