<svg width="1803" height="935" viewBox="0 0 1803 935" fill="none" xmlns="http://www.w3.org/2000/svg">
<path d="M997.251 233.194V236.302C997.251 264.873 1006.36 279.159 1024.57 279.159C1042.89 279.159 1052.05 264.873 1052.05 236.302V233.194C1052.05 204.623 1042.89 190.338 1024.57 190.338C1006.36 190.338 997.251 204.623 997.251 233.194ZM947.524 236.302V233.194C947.524 208.767 954.34 189.138 967.971 174.308C981.602 159.477 1000.47 152.062 1024.57 152.062C1048.67 152.062 1067.53 159.477 1081.16 174.308C1094.8 189.138 1101.61 208.767 1101.61 233.194V236.302C1101.61 260.838 1094.8 280.522 1081.16 295.353C1067.53 310.074 1048.67 317.435 1024.57 317.435C1000.47 317.435 981.602 310.074 967.971 295.353C954.34 280.631 947.524 260.947 947.524 236.302ZM1209.57 323.814C1194.63 323.814 1182.64 318.089 1173.58 306.639V382.047H1123.69V161.549H1170.31L1172.11 179.051C1181.49 165.42 1193.81 158.604 1209.08 158.604C1228.71 158.604 1243.98 166.074 1254.88 181.014C1265.79 195.954 1271.24 216.074 1271.24 241.373L1271.4 244.481C1271.4 268.908 1265.95 288.264 1255.04 302.55C1244.25 316.726 1229.09 323.814 1209.57 323.814ZM1196.98 196.881C1185.85 196.881 1178 200.916 1173.42 208.985V275.396C1177.78 282.158 1185.69 285.538 1197.14 285.538C1213.39 285.538 1221.51 271.852 1221.51 244.481L1221.67 241.373C1221.67 211.712 1213.44 196.881 1196.98 196.881ZM1382.8 215.201C1382.8 198.517 1375.93 190.174 1362.19 190.174C1348.77 190.174 1341.25 199.553 1339.61 218.309L1340.1 219.127H1382.8V215.201ZM1428.43 299.605V299.442V299.605ZM1288.58 239.901V234.176C1288.58 209.312 1295.07 189.356 1308.04 174.308C1321.02 159.259 1339.07 151.789 1362.19 151.898C1383.78 151.898 1400.68 158.332 1412.89 171.2C1425.22 184.068 1431.38 201.679 1431.38 224.034V250.206H1340.43L1340.1 251.024C1341.19 259.53 1344.57 266.345 1350.24 271.471C1355.91 276.596 1363.28 279.159 1372.33 279.159C1381.49 279.159 1388.79 278.504 1394.25 277.196C1399.7 275.887 1407.17 273.27 1416.66 269.344L1428.43 299.442C1421.13 304.785 1411.91 309.093 1400.79 312.364C1389.77 315.636 1378.11 317.271 1365.78 317.271C1342.56 317.271 1323.85 310.02 1309.68 295.516C1295.61 281.013 1288.58 262.474 1288.58 239.901ZM1451.82 154.679H1498.44L1500.41 177.088C1511.42 160.186 1526.41 151.734 1545.39 151.734C1578.54 151.734 1595.11 172.89 1595.11 215.201V314H1545.39V215.038C1545.39 206.096 1543.53 199.716 1539.83 195.899C1536.23 191.974 1530.34 190.011 1522.16 190.011C1513.98 190.011 1507.06 193.173 1501.39 199.498V314H1451.82V154.679Z" fill="white"/>
<path d="M1014.49 585.342V675.471C1024.63 660.313 1038.09 652.734 1054.89 652.734C1071.79 652.734 1084.82 658.623 1093.98 670.4C1103.25 682.069 1107.89 699.735 1107.89 723.398V815H1058.16V723.071C1058.16 711.294 1056.36 703.006 1052.76 698.208C1049.16 693.41 1043.06 691.011 1034.44 691.011C1025.94 691.011 1019.28 693.737 1014.49 699.189V815H964.595V585.342H1014.49ZM1225.33 716.201C1225.33 699.517 1218.46 691.174 1204.72 691.174C1191.31 691.174 1183.78 700.553 1182.15 719.309L1182.64 720.127H1225.33V716.201ZM1270.97 800.605V800.442V800.605ZM1131.11 740.901V735.176C1131.11 710.312 1137.6 690.356 1150.58 675.308C1163.56 660.259 1181.6 652.789 1204.72 652.898C1226.31 652.898 1243.22 659.332 1255.43 672.2C1267.75 685.068 1273.91 702.679 1273.91 725.034V751.206H1182.97L1182.64 752.024C1183.73 760.53 1187.11 767.345 1192.78 772.471C1198.45 777.596 1205.81 780.159 1214.86 780.159C1224.02 780.159 1231.33 779.504 1236.78 778.196C1242.24 776.887 1249.71 774.27 1259.19 770.344L1270.97 800.442C1263.66 805.785 1254.45 810.093 1243.33 813.364C1232.31 816.636 1220.64 818.271 1208.32 818.271C1185.09 818.271 1166.39 811.02 1152.21 796.516C1138.15 782.013 1131.11 763.474 1131.11 740.901ZM1338.85 818.435C1323.59 818.435 1311.26 814.073 1301.89 805.349C1292.51 796.625 1287.82 785.011 1287.82 770.508C1287.82 754.368 1293.76 742.1 1305.65 733.704C1317.53 725.198 1335.47 720.945 1359.46 720.945H1377.62V709.658C1377.62 695.591 1371.08 688.557 1357.99 688.557C1346.65 688.557 1340.98 694.119 1340.98 705.242L1292.89 705.078L1292.56 704.26C1291.91 689.43 1297.96 677.216 1310.72 667.62C1323.48 657.914 1340.11 653.062 1360.61 653.062C1381.22 653.062 1397.52 658.023 1409.52 667.947C1421.51 677.87 1427.51 691.883 1427.51 709.985V770.017C1427.51 785.938 1430.35 801.042 1436.02 815.327L1386.94 815.164C1384 809.493 1381.82 803.441 1380.4 797.007C1370.04 811.292 1356.19 818.435 1338.85 818.435ZM1359.95 747.444C1352.43 747.444 1346.76 749.298 1342.94 753.005C1339.23 756.604 1337.38 761.13 1337.38 766.582C1337.38 771.925 1338.91 776.015 1341.96 778.85C1345.12 781.576 1349.16 782.939 1354.07 782.939C1363.99 782.939 1371.84 779.395 1377.62 772.307V747.444H1359.95ZM1507.33 585.342V815H1457.44V585.342H1507.33ZM1547.25 616.421H1596.81V656.006H1623.8V690.52H1596.81V763.474C1596.81 774.161 1601.12 779.504 1609.73 779.504C1615.08 779.504 1619.87 779.014 1624.13 778.032L1627.73 814.836C1617.58 817.236 1607.39 818.435 1597.14 818.435C1580.45 818.435 1567.97 814.019 1559.68 805.186C1551.39 796.353 1547.25 782.558 1547.25 763.801V690.52H1524.84V656.006H1547.25V616.421ZM1695.61 585.342V675.471C1705.75 660.313 1719.22 652.734 1736.01 652.734C1752.91 652.734 1765.95 658.623 1775.11 670.4C1784.37 682.069 1789.01 699.735 1789.01 723.398V815H1739.28V723.071C1739.28 711.294 1737.48 703.006 1733.88 698.208C1730.29 693.41 1724.18 691.011 1715.56 691.011C1707.06 691.011 1700.41 693.737 1695.61 699.189V815H1645.72V585.342H1695.61Z" fill="#9DC5BB"/>
<path fill-rule="evenodd" clip-rule="evenodd" d="M343.653 618.017L271.133 831.773C271.133 831.773 59.9078 632.126 35.2657 474.023C10.6236 315.92 24.7037 198.645 162 158.758C299.296 118.871 403.498 265.284 403.498 265.284V388.74C335.204 388.74 280.989 416.959 280.989 498.088C280.989 579.216 343.653 618.017 343.653 618.017ZM463.347 618.018L535.867 831.774C535.867 831.774 747.092 632.127 771.734 474.024C796.376 315.922 782.296 198.647 645 158.759C507.704 118.872 403.501 265.285 403.501 265.285V388.741C471.796 388.741 526.01 416.96 526.01 498.089C526.01 579.217 463.347 618.018 463.347 618.018Z" fill="#9DC5BB"/>
<path d="M271.133 831.773L253.96 849.941L282.285 876.714L294.807 839.805L271.133 831.773ZM343.653 618.017L367.327 626.049L373.713 607.226L356.814 596.761L343.653 618.017ZM35.2657 474.023L59.9675 470.173L59.9675 470.173L35.2657 474.023ZM162 158.758L168.974 182.766L168.974 182.766L162 158.758ZM403.498 265.284H428.498V257.296L423.867 250.788L403.498 265.284ZM403.498 388.74V413.74H428.498V388.74H403.498ZM535.867 831.774L512.193 839.806L524.715 876.715L553.04 849.942L535.867 831.774ZM463.347 618.018L450.186 596.763L433.286 607.227L439.672 626.05L463.347 618.018ZM771.734 474.024L747.032 470.174L771.734 474.024ZM645 158.759L651.975 134.752L651.975 134.752L645 158.759ZM403.501 265.285L383.133 250.789L378.501 257.297V265.285H403.501ZM403.501 388.741H378.501V413.741H403.501V388.741ZM294.807 839.805L367.327 626.049L319.978 609.985L247.458 823.741L294.807 839.805ZM10.5639 477.873C23.9934 564.036 86.9178 657.987 142.938 727.829C171.437 763.359 199.108 793.799 219.644 815.353C229.923 826.141 238.441 834.73 244.416 840.648C247.405 843.608 249.759 845.901 251.382 847.469C252.193 848.253 252.822 848.856 253.255 849.271C253.472 849.478 253.64 849.638 253.758 849.75C253.817 849.806 253.864 849.85 253.897 849.882C253.914 849.898 253.928 849.911 253.938 849.921C253.943 849.926 253.949 849.931 253.951 849.933C253.956 849.938 253.96 849.941 271.133 831.773C288.305 813.604 288.307 813.606 288.309 813.607C288.308 813.607 288.309 813.607 288.308 813.606C288.305 813.604 288.3 813.599 288.291 813.59C288.273 813.574 288.243 813.545 288.2 813.504C288.115 813.423 287.98 813.295 287.796 813.119C287.429 812.769 286.869 812.231 286.127 811.514C284.644 810.081 282.436 807.931 279.601 805.122C273.928 799.505 265.752 791.261 255.843 780.862C236.005 760.041 209.329 730.688 181.942 696.544C126.189 627.036 71.1801 542.113 59.9675 470.173L10.5639 477.873ZM155.025 134.751C78.9334 156.857 34.4552 201.9 14.1339 264.321C-5.39054 324.294 -1.86943 398.101 10.5639 477.873L59.9675 470.173C47.7587 391.842 45.9988 327.96 61.6779 279.799C76.5601 234.085 107.77 200.547 168.974 182.766L155.025 134.751ZM403.498 265.284C423.867 250.788 423.861 250.78 423.855 250.771C423.852 250.767 423.846 250.758 423.84 250.751C423.83 250.736 423.818 250.72 423.805 250.701C423.777 250.663 423.744 250.616 423.704 250.561C423.624 250.45 423.518 250.304 423.387 250.124C423.125 249.765 422.761 249.271 422.297 248.652C421.369 247.415 420.041 245.678 418.33 243.523C414.911 239.218 409.945 233.224 403.568 226.211C390.863 212.239 372.311 193.945 348.997 176.887C302.743 143.044 234.257 111.733 155.025 134.751L168.974 182.766C227.039 165.897 279.302 187.848 319.473 217.239C339.372 231.799 355.451 247.615 366.575 259.849C372.112 265.939 376.359 271.072 379.175 274.618C380.582 276.389 381.626 277.758 382.292 278.646C382.625 279.09 382.863 279.413 383.003 279.606C383.074 279.702 383.12 279.765 383.141 279.795C383.151 279.809 383.156 279.816 383.154 279.813C383.153 279.812 383.151 279.809 383.147 279.803C383.145 279.8 383.141 279.794 383.14 279.793C383.135 279.787 383.13 279.78 403.498 265.284ZM428.498 388.74V265.284H378.498V388.74H428.498ZM305.989 498.088C305.989 463.602 317.166 444.257 331.99 432.718C347.937 420.305 372.184 413.74 403.498 413.74V363.74C366.519 363.74 329.511 371.285 301.277 393.263C271.92 416.116 255.989 451.445 255.989 498.088H305.989ZM343.653 618.017C356.814 596.761 356.823 596.767 356.833 596.773C356.835 596.775 356.844 596.78 356.85 596.784C356.861 596.791 356.871 596.797 356.88 596.803C356.899 596.814 356.914 596.824 356.925 596.831C356.948 596.845 356.956 596.85 356.95 596.847C356.939 596.84 356.873 596.797 356.754 596.718C356.517 596.562 356.075 596.263 355.456 595.823C354.216 594.94 352.283 593.499 349.885 591.496C345.067 587.474 338.511 581.302 331.942 572.983C318.883 556.442 305.989 531.761 305.989 498.088H255.989C255.989 545.543 274.428 580.826 292.7 603.967C301.797 615.489 310.907 624.089 317.838 629.877C321.315 632.78 324.278 635.003 326.464 636.56C327.559 637.339 328.463 637.953 329.144 638.404C329.484 638.629 329.77 638.814 329.995 638.959C330.108 639.031 330.207 639.093 330.289 639.146C330.331 639.172 330.368 639.195 330.402 639.216C330.419 639.227 330.435 639.237 330.45 639.246C330.457 639.251 330.468 639.257 330.471 639.259C330.482 639.266 330.492 639.272 343.653 618.017ZM559.542 823.742L487.022 609.986L439.672 626.05L512.193 839.806L559.542 823.742ZM747.032 470.174C735.82 542.114 680.811 627.038 625.058 696.545C597.671 730.689 570.995 760.042 551.157 780.863C541.248 791.263 533.071 799.506 527.399 805.124C524.564 807.932 522.356 810.082 520.872 811.516C520.131 812.232 519.57 812.77 519.203 813.121C519.02 813.296 518.885 813.425 518.799 813.506C518.757 813.546 518.726 813.575 518.709 813.591C518.7 813.6 518.695 813.605 518.692 813.607C518.691 813.609 518.692 813.608 518.691 813.609C518.692 813.607 518.694 813.605 535.867 831.774C553.04 849.942 553.044 849.939 553.048 849.934C553.051 849.932 553.056 849.927 553.062 849.922C553.072 849.912 553.086 849.899 553.102 849.883C553.136 849.851 553.182 849.807 553.241 849.751C553.359 849.639 553.528 849.479 553.744 849.272C554.178 848.857 554.807 848.254 555.618 847.47C557.241 845.902 559.595 843.609 562.584 840.649C568.559 834.731 577.077 826.142 587.356 815.354C607.892 793.8 635.562 763.36 664.061 727.83C720.082 657.988 783.006 564.037 796.436 477.874L747.032 470.174ZM638.026 182.767C699.23 200.548 730.44 234.086 745.322 279.8C761.001 327.962 759.241 391.843 747.032 470.174L796.436 477.874C808.869 398.102 812.39 324.295 792.866 264.322C772.545 201.901 728.066 156.858 651.975 134.752L638.026 182.767ZM403.501 265.285C423.869 279.781 423.865 279.788 423.86 279.794C423.859 279.796 423.855 279.802 423.853 279.804C423.849 279.81 423.847 279.813 423.846 279.814C423.844 279.817 423.848 279.811 423.859 279.796C423.88 279.767 423.926 279.703 423.996 279.607C424.137 279.414 424.374 279.091 424.707 278.647C425.373 277.759 426.418 276.39 427.825 274.619C430.64 271.073 434.887 265.94 440.425 259.85C451.549 247.617 467.628 231.8 487.527 217.241C527.698 187.849 579.961 165.898 638.026 182.767L651.975 134.752C572.743 111.734 504.257 143.046 458.003 176.888C434.689 193.946 416.136 212.24 403.432 226.212C397.055 233.225 392.089 239.219 388.669 243.524C386.958 245.679 385.63 247.416 384.703 248.653C384.239 249.272 383.875 249.766 383.613 250.125C383.482 250.305 383.376 250.451 383.296 250.562C383.256 250.617 383.222 250.664 383.195 250.702C383.182 250.721 383.17 250.738 383.159 250.752C383.154 250.759 383.148 250.768 383.145 250.772C383.139 250.781 383.133 250.789 403.501 265.285ZM428.501 388.741V265.285H378.501V388.741H428.501ZM551.01 498.089C551.01 451.446 535.08 416.117 505.723 393.264C477.489 371.286 440.481 363.741 403.501 363.741V413.741C434.816 413.741 459.063 420.306 475.01 432.719C489.833 444.259 501.01 463.603 501.01 498.089H551.01ZM463.347 618.018C476.508 639.273 476.518 639.267 476.528 639.261C476.532 639.258 476.542 639.252 476.55 639.247C476.565 639.238 476.581 639.228 476.598 639.218C476.631 639.196 476.669 639.173 476.71 639.147C476.793 639.095 476.891 639.033 477.004 638.96C477.23 638.816 477.515 638.631 477.856 638.405C478.537 637.954 479.441 637.34 480.535 636.561C482.722 635.004 485.685 632.781 489.161 629.878C496.093 624.09 505.203 615.491 514.3 603.969C532.572 580.827 551.01 545.544 551.01 498.089H501.01C501.01 531.762 488.117 556.444 475.057 572.984C468.489 581.304 461.933 587.475 457.115 591.498C454.717 593.5 452.784 594.941 451.544 595.824C450.925 596.264 450.483 596.563 450.246 596.72C450.127 596.798 450.061 596.841 450.049 596.848C450.044 596.852 450.052 596.846 450.075 596.832C450.086 596.825 450.101 596.816 450.119 596.804C450.129 596.798 450.139 596.792 450.15 596.785C450.155 596.782 450.164 596.776 450.167 596.774C450.176 596.769 450.186 596.763 463.347 618.018Z" fill="white"/>
<path d="M773 451C724 485.5 640 518 539.5 500" stroke="white" stroke-width="48"/>
<path d="M770 344C706 399.5 631.5 432 524 445" stroke="white" stroke-width="48"/>
<path d="M748.5 248.5C672.5 326 564 373.5 453.5 395.5" stroke="white" stroke-width="48"/>
<path d="M681 187C631.5 246.5 512.5 318 421 325.5" stroke="white" stroke-width="48"/>
<path d="M34 451.5C83 486 167 518.5 267.5 500.5" stroke="white" stroke-width="48"/>
<path d="M37 344.5C101 400 175.5 432.5 283 445.5" stroke="white" stroke-width="48"/>
<path d="M58.5 249C134.5 326.5 243 374 353.5 396" stroke="white" stroke-width="48"/>
<path d="M126 187.5C175.5 247 294.5 318.5 386 326" stroke="white" stroke-width="48"/>
<path d="M1004.34 400.782L1025.77 494.51L1028.72 511.358L1029.53 511.522L1032.81 494.51L1053.91 400.782H1106.09L1054.4 560.103H1003.85L952 400.782H1004.34Z" fill="#7F33E1"/>
<path d="M1173.32 400.782V560.103H1123.43V400.782H1173.32Z" fill="#7F33E1"/>
<path d="M1293.71 461.304C1293.71 444.62 1286.84 436.278 1273.1 436.278C1259.68 436.278 1252.16 445.656 1250.52 464.412L1251.01 465.23H1293.71V461.304ZM1199.49 486.004V480.279C1199.49 455.416 1205.98 435.46 1218.95 420.411C1231.93 405.362 1249.98 397.892 1273.1 398.001C1294.69 398.001 1311.59 404.435 1323.8 417.303C1336.13 430.171 1342.29 447.782 1342.29 470.137V496.309H1251.34L1251.01 497.127C1252.1 505.633 1255.48 512.449 1261.16 517.574C1266.83 522.699 1274.19 525.262 1283.24 525.262C1292.4 525.262 1299.7 524.608 1305.16 523.299C1310.61 521.99 1318.08 519.373 1327.57 515.447L1339.34 545.545C1332.04 550.889 1322.82 555.196 1311.7 558.467C1300.69 561.739 1289.02 563.375 1276.69 563.375C1253.47 563.375 1234.77 556.123 1220.59 541.619C1206.52 527.116 1199.49 508.577 1199.49 486.004Z" fill="#7F33E1"/>
<path d="M1474.13 400.782L1500.46 493.038H1501.28L1518.46 400.782H1564.42L1526.96 560.103H1484.92L1459.08 475.535H1458.1L1432.09 560.103H1390.05L1352.59 400.782H1398.56L1416.06 493.856H1416.88L1442.89 400.782H1474.13Z" fill="#7F33E1"/>
</svg>
