<svg width="1796" height="934" viewBox="0 0 1796 934" fill="none" xmlns="http://www.w3.org/2000/svg">
<path d="M996.251 233.309V236.417C996.251 264.987 1005.36 279.273 1023.57 279.273C1041.89 279.273 1051.05 264.987 1051.05 236.417V233.309C1051.05 204.738 1041.89 190.452 1023.57 190.452C1005.36 190.452 996.251 204.738 996.251 233.309ZM946.524 236.417V233.309C946.524 208.882 953.34 189.253 966.971 174.422C980.602 159.591 999.468 152.176 1023.57 152.176C1047.67 152.176 1066.53 159.591 1080.16 174.422C1093.8 189.253 1100.61 208.882 1100.61 233.309V236.417C1100.61 260.953 1093.8 280.636 1080.16 295.467C1066.53 310.188 1047.67 317.549 1023.57 317.549C999.468 317.549 980.602 310.188 966.971 295.467C953.34 280.745 946.524 261.062 946.524 236.417ZM1208.57 323.929C1193.63 323.929 1181.64 318.204 1172.58 306.753V382.161H1122.69V161.663H1169.31L1171.11 179.166C1180.49 165.534 1192.81 158.719 1208.08 158.719C1227.71 158.719 1242.98 166.189 1253.88 181.128C1264.79 196.068 1270.24 216.188 1270.24 241.487L1270.4 244.595C1270.4 269.022 1264.95 288.379 1254.04 302.664C1243.25 316.84 1228.09 323.929 1208.57 323.929ZM1195.98 196.995C1184.85 196.995 1177 201.03 1172.42 209.1V275.511C1176.78 282.272 1184.69 285.652 1196.14 285.652C1212.39 285.652 1220.51 271.967 1220.51 244.595L1220.67 241.487C1220.67 211.826 1212.44 196.995 1195.98 196.995ZM1381.8 215.315C1381.8 198.631 1374.93 190.289 1361.19 190.289C1347.77 190.289 1340.25 199.667 1338.61 218.423L1339.1 219.241H1381.8V215.315ZM1427.43 299.72V299.556V299.72ZM1287.58 240.015V234.29C1287.58 209.427 1294.07 189.471 1307.04 174.422C1320.02 159.373 1338.07 151.903 1361.19 152.012C1382.78 152.012 1399.68 158.446 1411.89 171.314C1424.22 184.182 1430.38 201.793 1430.38 224.148V250.32H1339.43L1339.1 251.138C1340.19 259.644 1343.57 266.46 1349.24 271.585C1354.91 276.71 1362.28 279.273 1371.33 279.273C1380.49 279.273 1387.79 278.619 1393.25 277.31C1398.7 276.001 1406.17 273.384 1415.66 269.458L1427.43 299.556C1420.13 304.9 1410.91 309.207 1399.79 312.479C1388.77 315.75 1377.11 317.386 1364.78 317.386C1341.56 317.386 1322.85 310.134 1308.68 295.63C1294.61 281.127 1287.58 262.588 1287.58 240.015ZM1450.82 154.793H1497.44L1499.41 177.203C1510.42 160.3 1525.41 151.849 1544.39 151.849C1577.54 151.849 1594.11 173.004 1594.11 215.315V314.114H1544.39V215.152C1544.39 206.21 1542.53 199.83 1538.83 196.014C1535.23 192.088 1529.34 190.125 1521.16 190.125C1512.98 190.125 1506.06 193.287 1500.39 199.612V314.114H1450.82V154.793Z" fill="#28262C"/>
<path d="M1006.92 583.356V673.486C1017.06 658.328 1030.53 650.749 1047.32 650.749C1064.23 650.749 1077.26 656.638 1086.42 668.415C1095.69 680.083 1100.32 697.749 1100.32 721.413V813.015H1050.59V721.086C1050.59 709.309 1048.79 701.021 1045.2 696.223C1041.6 691.424 1035.49 689.025 1026.88 689.025C1018.37 689.025 1011.72 691.752 1006.92 697.204V813.015H957.03V583.356H1006.92ZM1217.77 714.216C1217.77 697.531 1210.9 689.189 1197.16 689.189C1183.74 689.189 1176.22 698.567 1174.58 717.324L1175.07 718.142H1217.77V714.216ZM1263.4 798.62V798.457V798.62ZM1123.55 738.916V733.19C1123.55 708.327 1130.04 688.371 1143.01 673.322C1155.99 658.273 1174.04 650.804 1197.16 650.913C1218.75 650.913 1235.65 657.347 1247.86 670.214C1260.19 683.082 1266.35 700.694 1266.35 723.049V749.221H1175.4L1175.07 750.039C1176.16 758.544 1179.55 765.36 1185.22 770.485C1190.89 775.611 1198.25 778.173 1207.3 778.173C1216.46 778.173 1223.76 777.519 1229.22 776.21C1234.67 774.902 1242.14 772.285 1251.63 768.359L1263.4 798.457C1256.1 803.8 1246.88 808.107 1235.76 811.379C1224.75 814.65 1213.08 816.286 1200.76 816.286C1177.53 816.286 1158.83 809.034 1144.65 794.531C1130.58 780.027 1123.55 761.489 1123.55 738.916ZM1331.29 816.45C1316.02 816.45 1303.7 812.088 1294.32 803.364C1284.94 794.64 1280.25 783.026 1280.25 768.522C1280.25 752.383 1286.2 740.115 1298.08 731.718C1309.97 723.212 1327.91 718.959 1351.9 718.959H1370.05V707.673C1370.05 693.605 1363.51 686.572 1350.43 686.572C1339.08 686.572 1333.41 692.133 1333.41 703.256L1285.32 703.093L1285 702.275C1284.34 687.444 1290.39 675.231 1303.15 665.634C1315.91 655.929 1332.54 651.076 1353.04 651.076C1373.65 651.076 1389.96 656.038 1401.95 665.961C1413.95 675.885 1419.94 689.898 1419.94 708V768.032C1419.94 783.953 1422.78 799.056 1428.45 813.342L1379.38 813.178C1376.43 807.508 1374.25 801.455 1372.84 795.021C1362.48 809.307 1348.63 816.45 1331.29 816.45ZM1352.39 745.458C1344.86 745.458 1339.19 747.312 1335.38 751.02C1331.67 754.619 1329.82 759.144 1329.82 764.597C1329.82 769.94 1331.34 774.029 1334.4 776.865C1337.56 779.591 1341.59 780.954 1346.5 780.954C1356.42 780.954 1364.28 777.41 1370.05 770.322V745.458H1352.39ZM1499.77 583.356V813.015H1449.88V583.356H1499.77ZM1539.68 614.436H1589.24V654.021H1616.23V688.535H1589.24V761.489C1589.24 772.176 1593.55 777.519 1602.17 777.519C1607.51 777.519 1612.31 777.028 1616.56 776.047L1620.16 812.851C1610.02 815.25 1599.82 816.45 1589.57 816.45C1572.89 816.45 1560.4 812.033 1552.11 803.2C1543.83 794.367 1539.68 780.572 1539.68 761.816V688.535H1517.27V654.021H1539.68V614.436ZM1688.04 583.356V673.486C1698.18 658.328 1711.65 650.749 1728.45 650.749C1745.35 650.749 1758.38 656.638 1767.54 668.415C1776.81 680.083 1781.44 697.749 1781.44 721.413V813.015H1731.72V721.086C1731.72 709.309 1729.92 701.021 1726.32 696.223C1722.72 691.424 1716.61 689.025 1708 689.025C1699.49 689.025 1692.84 691.752 1688.04 697.204V813.015H1638.15V583.356H1688.04Z" fill="#9DC5BB"/>
<path fill-rule="evenodd" clip-rule="evenodd" d="M342.653 606.017L270.133 819.773C270.133 819.773 58.9079 620.126 34.2658 462.023C9.62371 303.92 23.7038 186.645 161 146.758C298.296 106.871 402.498 253.284 402.498 253.284V376.74C334.204 376.74 279.99 404.959 279.99 486.088C279.99 567.216 342.653 606.017 342.653 606.017ZM462.347 606.018L534.867 819.774C534.867 819.774 746.092 620.127 770.734 462.024C795.376 303.922 781.296 186.647 644 146.759C506.704 106.872 402.501 253.285 402.501 253.285V376.741C470.796 376.741 525.01 404.96 525.01 486.089C525.01 567.217 462.347 606.018 462.347 606.018Z" fill="#9DC5BB"/>
<path d="M270.133 819.773L253.99 836.851C259.808 842.349 268.024 844.509 275.793 842.581C283.562 840.653 289.815 834.903 292.387 827.323L270.133 819.773ZM342.653 606.017L364.907 613.567C368.421 603.208 364.324 591.795 355.024 586.037L342.653 606.017ZM34.2658 462.023L57.4855 458.404L57.4855 458.404L34.2658 462.023ZM161 146.758L167.556 169.325L167.556 169.325L161 146.758ZM402.498 253.284H425.998C425.998 248.399 424.477 243.637 421.645 239.657L402.498 253.284ZM402.498 376.74V400.24C415.477 400.24 425.998 389.719 425.998 376.74H402.498ZM534.867 819.774L512.613 827.324C515.185 834.904 521.438 840.654 529.207 842.582C536.976 844.51 545.192 842.351 551.01 836.852L534.867 819.774ZM462.347 606.018L449.976 586.038C440.676 591.796 436.579 603.21 440.093 613.568L462.347 606.018ZM770.734 462.024L747.515 458.405L770.734 462.024ZM644 146.759L650.556 124.192L650.556 124.192L644 146.759ZM402.501 253.285L383.355 239.659C380.523 243.638 379.001 248.401 379.001 253.285H402.501ZM402.501 376.741H379.001C379.001 389.72 389.523 400.241 402.501 400.241V376.741ZM292.387 827.323L364.907 613.567L320.399 598.467L247.879 812.222L292.387 827.323ZM11.0462 465.642C24.4091 551.378 87.0961 645.059 143.108 714.89C171.574 750.379 199.215 780.786 219.73 802.318C229.998 813.094 238.506 821.673 244.472 827.582C247.456 830.537 249.806 832.826 251.424 834.39C252.233 835.173 252.86 835.774 253.292 836.186C253.508 836.392 253.675 836.551 253.792 836.663C253.85 836.718 253.896 836.762 253.929 836.793C253.946 836.809 253.959 836.822 253.969 836.831C253.975 836.836 253.98 836.841 253.982 836.843C253.987 836.848 253.99 836.851 270.133 819.773C286.275 802.694 286.277 802.696 286.278 802.697C286.278 802.696 286.278 802.697 286.277 802.696C286.274 802.693 286.268 802.688 286.259 802.679C286.241 802.662 286.21 802.633 286.167 802.592C286.081 802.51 285.945 802.38 285.76 802.204C285.391 801.851 284.829 801.312 284.085 800.593C282.597 799.156 280.385 797.001 277.545 794.188C271.864 788.561 263.677 780.308 253.757 769.897C233.898 749.054 207.192 719.668 179.772 685.482C124.011 615.965 68.7646 530.771 57.4855 458.404L11.0462 465.642ZM154.444 124.191C78.7986 146.168 34.7185 190.865 14.5603 252.785C-4.84873 312.404 -1.38046 385.913 11.0462 465.642L57.4855 458.404C45.27 380.03 43.4573 315.85 59.2517 267.334C74.2971 221.119 105.905 187.236 167.556 169.325L154.444 124.191ZM402.498 253.284C421.645 239.657 421.639 239.65 421.633 239.642C421.631 239.638 421.625 239.629 421.62 239.622C421.61 239.609 421.598 239.592 421.585 239.574C421.559 239.538 421.526 239.492 421.487 239.438C421.409 239.329 421.305 239.186 421.176 239.009C420.917 238.654 420.557 238.165 420.097 237.552C419.177 236.325 417.858 234.599 416.156 232.456C412.755 228.173 407.81 222.205 401.458 215.22C388.801 201.3 370.323 183.081 347.112 166.098C301.04 132.389 233.04 101.357 154.444 124.191L167.556 169.325C226.255 152.272 279.005 174.503 319.359 204.029C339.36 218.663 355.514 234.554 366.685 246.84C372.248 252.958 376.516 258.117 379.35 261.685C380.765 263.467 381.819 264.848 382.493 265.746C382.829 266.196 383.071 266.524 383.215 266.721C383.287 266.82 383.335 266.886 383.358 266.918C383.369 266.934 383.375 266.941 383.374 266.94C383.373 266.939 383.371 266.937 383.368 266.932C383.366 266.929 383.362 266.924 383.361 266.922C383.357 266.917 383.352 266.91 402.498 253.284ZM425.998 376.74V253.284H378.998V376.74H425.998ZM303.49 486.088C303.49 451.237 314.809 431.413 330.069 419.535C346.384 406.834 371.014 400.24 402.498 400.24V353.24C365.689 353.24 329.064 360.755 301.198 382.447C272.277 404.96 256.49 439.81 256.49 486.088H303.49ZM342.653 606.017C355.024 586.037 355.033 586.042 355.042 586.048C355.044 586.049 355.053 586.055 355.058 586.058C355.068 586.064 355.078 586.07 355.086 586.075C355.103 586.086 355.117 586.094 355.126 586.1C355.146 586.113 355.151 586.116 355.142 586.11C355.124 586.099 355.051 586.052 354.926 585.969C354.676 585.803 354.219 585.495 353.586 585.045C352.318 584.142 350.354 582.677 347.923 580.648C343.042 576.572 336.41 570.328 329.765 561.913C316.549 545.174 303.49 520.174 303.49 486.088H256.49C256.49 533.13 274.762 568.094 292.877 591.038C301.899 602.464 310.932 610.99 317.8 616.725C321.244 619.601 324.176 621.801 326.334 623.337C327.415 624.106 328.305 624.711 328.972 625.153C329.306 625.374 329.585 625.555 329.804 625.696C329.914 625.766 330.009 625.826 330.089 625.876C330.128 625.901 330.164 625.924 330.197 625.944C330.213 625.954 330.228 625.963 330.242 625.972C330.249 625.977 330.259 625.983 330.262 625.985C330.272 625.991 330.281 625.997 342.653 606.017ZM557.121 812.224L484.601 598.468L440.093 613.568L512.613 827.324L557.121 812.224ZM747.515 458.405C736.235 530.772 680.989 615.966 625.228 685.484C597.808 719.669 571.102 749.055 551.243 769.898C541.323 780.309 533.136 788.563 527.455 794.189C524.615 797.002 522.403 799.157 520.915 800.594C520.171 801.313 519.609 801.852 519.24 802.205C519.055 802.381 518.919 802.511 518.833 802.593C518.79 802.634 518.759 802.663 518.741 802.68C518.732 802.689 518.726 802.694 518.723 802.697C518.722 802.698 518.722 802.698 518.722 802.698C518.723 802.697 518.725 802.695 534.867 819.774C551.01 836.852 551.013 836.849 551.018 836.845C551.02 836.842 551.025 836.837 551.031 836.832C551.041 836.823 551.054 836.81 551.071 836.794C551.104 836.763 551.15 836.719 551.208 836.664C551.325 836.553 551.492 836.394 551.708 836.187C552.14 835.775 552.767 835.174 553.576 834.392C555.194 832.828 557.544 830.538 560.528 827.583C566.494 821.674 575.002 813.095 585.27 802.319C605.785 780.788 633.426 750.38 661.892 714.891C717.904 645.06 780.591 551.38 793.954 465.643L747.515 458.405ZM637.444 169.326C699.095 187.237 730.703 221.121 745.748 267.336C761.543 315.852 759.73 380.031 747.515 458.405L793.954 465.643C806.38 385.915 809.849 312.405 790.44 252.786C770.282 190.866 726.201 146.169 650.556 124.192L637.444 169.326ZM402.501 253.285C421.648 266.911 421.643 266.918 421.639 266.924C421.638 266.925 421.634 266.93 421.632 266.933C421.629 266.938 421.627 266.941 421.626 266.941C421.625 266.942 421.631 266.935 421.642 266.919C421.665 266.887 421.713 266.821 421.785 266.722C421.929 266.525 422.171 266.197 422.507 265.748C423.181 264.849 424.234 263.469 425.65 261.686C428.484 258.118 432.752 252.959 438.315 246.841C449.486 234.555 465.64 218.664 485.641 204.03C525.995 174.505 578.745 152.273 637.444 169.326L650.556 124.192C571.96 101.359 503.96 132.39 457.888 166.099C434.677 183.082 416.199 201.301 403.541 215.222C397.19 222.207 392.245 228.174 388.844 232.457C387.142 234.6 385.823 236.326 384.903 237.553C384.443 238.167 384.083 238.656 383.824 239.01C383.695 239.187 383.591 239.33 383.513 239.439C383.474 239.493 383.441 239.539 383.415 239.575C383.402 239.594 383.39 239.61 383.38 239.624C383.375 239.631 383.369 239.639 383.367 239.643C383.361 239.651 383.355 239.659 402.501 253.285ZM426.001 376.741V253.285H379.001V376.741H426.001ZM548.51 486.089C548.51 439.811 532.723 404.961 503.801 382.448C475.936 360.757 439.311 353.241 402.501 353.241V400.241C433.986 400.241 458.616 406.835 474.931 419.536C490.191 431.414 501.51 451.238 501.51 486.089H548.51ZM462.347 606.018C474.719 625.998 474.728 625.992 474.738 625.986C474.741 625.984 474.751 625.978 474.758 625.973C474.772 625.965 474.787 625.955 474.803 625.945C474.836 625.925 474.872 625.902 474.911 625.877C474.991 625.827 475.086 625.767 475.196 625.697C475.415 625.556 475.694 625.376 476.028 625.155C476.695 624.712 477.585 624.107 478.666 623.339C480.824 621.803 483.756 619.602 487.2 616.726C494.068 610.992 503.101 602.465 512.123 591.039C530.238 568.095 548.51 533.131 548.51 486.089H501.51C501.51 520.175 488.451 545.175 475.235 561.914C468.59 570.329 461.958 576.573 457.076 580.649C454.646 582.678 452.682 584.143 451.414 585.046C450.781 585.496 450.324 585.804 450.074 585.97C449.949 586.053 449.876 586.1 449.858 586.111C449.849 586.117 449.854 586.114 449.874 586.102C449.883 586.095 449.897 586.087 449.914 586.077C449.922 586.071 449.932 586.065 449.942 586.059C449.947 586.056 449.956 586.051 449.958 586.049C449.967 586.044 449.976 586.038 462.347 606.018Z" fill="#28262C"/>
<path d="M772 439C723 473.5 639 506 538.5 488" stroke="#28262C" stroke-width="36"/>
<path d="M769 332C705 387.5 630.5 420 523 433" stroke="#28262C" stroke-width="36"/>
<path d="M747.5 236.5C671.5 314 563 361.5 452.5 383.5" stroke="#28262C" stroke-width="36"/>
<path d="M680 175C630.5 234.5 511.5 306 420 313.5" stroke="#28262C" stroke-width="36"/>
<path d="M33 439.5C82 474 166 506.5 266.5 488.5" stroke="#28262C" stroke-width="36"/>
<path d="M36 332.5C100 388 174.5 420.5 282 433.5" stroke="#28262C" stroke-width="36"/>
<path d="M57.5 237C133.5 314.5 242 362 352.5 384" stroke="#28262C" stroke-width="36"/>
<path d="M125 175.5C174.5 235 293.5 306.5 385 314" stroke="#28262C" stroke-width="36"/>
<path d="M1003.34 400.896L1024.77 494.624L1027.72 511.472L1028.53 511.636L1031.81 494.624L1052.91 400.896H1105.09L1053.4 560.217H1002.85L951 400.896H1003.34Z" fill="#7F33E1"/>
<path d="M1172.32 400.896V560.217H1122.43V400.896H1172.32Z" fill="#7F33E1"/>
<path d="M1292.71 461.419C1292.71 444.734 1285.84 436.392 1272.1 436.392C1258.68 436.392 1251.16 445.77 1249.52 464.527L1250.01 465.344H1292.71V461.419ZM1198.49 486.118V480.393C1198.49 455.53 1204.98 435.574 1217.95 420.525C1230.93 405.476 1248.98 398.006 1272.1 398.115C1293.69 398.115 1310.59 404.549 1322.8 417.417C1335.13 430.285 1341.29 447.897 1341.29 470.252V496.424H1250.34L1250.01 497.241C1251.1 505.747 1254.48 512.563 1260.16 517.688C1265.83 522.814 1273.19 525.376 1282.24 525.376C1291.4 525.376 1298.7 524.722 1304.16 523.413C1309.61 522.105 1317.08 519.488 1326.57 515.562L1338.34 545.659C1331.04 551.003 1321.82 555.31 1310.7 558.582C1299.69 561.853 1288.02 563.489 1275.69 563.489C1252.47 563.489 1233.77 556.237 1219.59 541.734C1205.52 527.23 1198.49 508.692 1198.49 486.118Z" fill="#7F33E1"/>
<path d="M1473.13 400.896L1499.46 493.152H1500.28L1517.46 400.896H1563.42L1525.96 560.217H1483.92L1458.08 475.65H1457.1L1431.09 560.217H1389.05L1351.59 400.896H1397.56L1415.06 493.97H1415.88L1441.89 400.896H1473.13Z" fill="#7F33E1"/>
</svg>
