<svg fill="none" height="259" viewBox="0 0 462 259" width="462" xmlns="http://www.w3.org/2000/svg"><circle cx="423" cy="166" fill="#fff" r="39"/><g fill="#fff"><path d="m213.625 148.621c0-13.793-5.661-20.689-16.981-20.689-11.051 0-17.25 7.753-18.597 23.258l.404.676h35.174zm-77.625 20.419v-4.733c0-20.554 5.346-37.051 16.037-49.492 10.691-12.44 25.56-18.6153 44.607-18.5251 17.789 0 31.715 5.3191 41.777 15.9561 10.153 10.638 15.229 25.197 15.229 43.677v21.636h-74.93l-.269.676c.898 7.031 3.683 12.666 8.355 16.903s10.737 6.355 18.194 6.355c7.546 0 13.566-.541 18.058-1.623 4.492-1.081 10.646-3.245 18.463-6.49l9.703 24.881c-6.02 4.417-13.611 7.978-22.775 10.682-9.074 2.705-18.688 4.057-28.84 4.057-19.137 0-34.545-5.995-46.224-17.985-11.59-11.989-17.385-27.315-17.385-45.975z"/><path d="m289.463 66h40.834v32.7239h22.236v28.5321h-22.236v60.309c0 8.835 3.548 13.252 10.646 13.252h5.407l11.401 29.614c-8.356 1.983-18.74 2.569-27.185 2.569-13.746 0-24.033-3.651-30.861-10.953s-10.242-18.706-10.242-34.211v-60.58h-18.463v-28.5321h18.463z"/><path d="m57.7778 162.07c0 34.726-11.5556 49.263-57.7778 96.93h57.7778c31.7778-30.51 44.7782-59.375 44.7782-89.708 0-30.334-8.4648-50.556-4.3338-79.4732 4.3338-30.3333 24.5558-46.3098 57.7778-46.3098l-15.889-43.50887793c-61.611.00005084-83.4403 37.99997793-86.6666 89.81867793-1.4444 23.2002 4.3334 54.9172 4.3334 72.2512z"/></g></svg>