<svg width="2392" height="457" viewBox="0 0 2392 457" fill="none" xmlns="http://www.w3.org/2000/svg">
<rect width="2392" height="457" rx="195.03" fill="white"/>
<path d="M1459.08 238.934C1459.08 226.597 1454.01 220.428 1443.89 220.428C1434 220.428 1428.46 227.363 1427.25 241.232L1427.61 241.836H1459.08V238.934ZM1389.64 257.197V252.964C1389.64 234.579 1394.43 219.824 1403.99 208.696C1413.55 197.569 1426.85 192.046 1443.89 192.126C1459.8 192.126 1472.25 196.884 1481.26 206.398C1490.34 215.913 1494.88 228.935 1494.88 245.465V264.817H1427.86L1427.61 265.422C1428.42 271.711 1430.91 276.751 1435.09 280.54C1439.27 284.33 1444.69 286.225 1451.36 286.225C1458.11 286.225 1463.5 285.741 1467.51 284.773C1471.53 283.806 1477.04 281.871 1484.03 278.968L1492.71 301.223C1487.32 305.174 1480.53 308.359 1472.34 310.778C1464.22 313.197 1455.62 314.406 1446.54 314.406C1429.42 314.406 1415.64 309.044 1405.19 298.32C1394.83 287.596 1389.64 273.888 1389.64 257.197Z" fill="#28262C"/>
<path d="M1526.91 165.034H1563.43V194.303H1583.32V219.824H1563.43V273.767C1563.43 281.669 1566.61 285.62 1572.96 285.62C1576.89 285.62 1572.02 285.62 1577.79 285.62L1587.99 312.108C1580.52 313.882 1571.23 314.406 1563.67 314.406C1551.38 314.406 1542.18 311.14 1536.07 304.609C1529.96 298.078 1526.91 287.878 1526.91 274.009V219.824H1510.4V194.303H1526.91V165.034Z" fill="#28262C"/>
<path d="M1319.68 250.963C1319.68 282.024 1309.34 295.026 1268 337.662H1319.68C1348.1 310.372 1359.73 284.554 1359.73 257.422C1359.73 230.291 1352.16 212.203 1355.85 186.338C1359.73 159.207 1377.82 144.916 1407.53 144.916L1393.32 106C1338.21 106 1318.69 139.989 1315.8 186.338C1314.51 207.089 1319.68 235.459 1319.68 250.963Z" fill="#28262C"/>
<path d="M1656.09 162.945V222.144C1662.75 212.188 1671.59 207.21 1682.62 207.21C1693.73 207.21 1702.29 211.078 1708.3 218.813C1714.39 226.477 1717.43 238.081 1717.43 253.623V313.789H1684.77V253.408C1684.77 245.673 1683.59 240.229 1681.23 237.078C1678.86 233.926 1674.85 232.351 1669.19 232.351C1663.61 232.351 1659.24 234.141 1656.09 237.722V313.789H1623.32V162.945H1656.09ZM1794.58 248.896C1794.58 237.937 1790.06 232.458 1781.04 232.458C1772.23 232.458 1767.29 238.618 1766.21 250.937L1766.53 251.475H1794.58V248.896ZM1824.55 304.334V304.227V304.334ZM1732.69 265.119V261.359C1732.69 245.028 1736.95 231.921 1745.48 222.036C1754 212.152 1765.85 207.246 1781.04 207.317C1795.22 207.317 1806.32 211.543 1814.34 219.995C1822.44 228.447 1826.48 240.014 1826.48 254.698V271.888H1766.75L1766.53 272.425C1767.25 278.012 1769.47 282.488 1773.19 285.855C1776.92 289.221 1781.75 290.904 1787.7 290.904C1793.72 290.904 1798.51 290.475 1802.1 289.615C1805.68 288.756 1810.58 287.037 1816.81 284.458L1824.55 304.227C1819.75 307.737 1813.7 310.566 1806.39 312.714C1799.16 314.863 1791.5 315.938 1783.4 315.938C1768.15 315.938 1755.86 311.175 1746.55 301.648C1737.31 292.122 1732.69 279.946 1732.69 265.119ZM1869.14 316.045C1859.11 316.045 1851.02 313.18 1844.86 307.45C1838.7 301.72 1835.62 294.092 1835.62 284.566C1835.62 273.965 1839.52 265.907 1847.33 260.392C1855.13 254.805 1866.92 252.012 1882.67 252.012H1894.6V244.599C1894.6 235.359 1890.3 230.739 1881.71 230.739C1874.26 230.739 1870.53 234.392 1870.53 241.698L1838.95 241.59L1838.73 241.053C1838.3 231.312 1842.28 223.29 1850.66 216.987C1859.04 210.612 1869.96 207.425 1883.43 207.425C1896.96 207.425 1907.67 210.684 1915.55 217.202C1923.43 223.72 1927.37 232.924 1927.37 244.813V284.243C1927.37 294.701 1929.23 304.621 1932.96 314.004L1900.72 313.896C1898.79 310.172 1897.36 306.197 1896.43 301.971C1889.62 311.354 1880.53 316.045 1869.14 316.045ZM1883 269.417C1878.05 269.417 1874.33 270.634 1871.82 273.07C1869.39 275.433 1868.17 278.406 1868.17 281.987C1868.17 285.497 1869.17 288.183 1871.18 290.045C1873.26 291.836 1875.91 292.731 1879.13 292.731C1885.65 292.731 1890.8 290.403 1894.6 285.747V269.417H1883ZM1979.8 162.945V313.789H1947.03V162.945H1979.8ZM2006.01 183.359H2038.57V209.359H2056.3V232.028H2038.57V279.946C2038.57 286.965 2041.4 290.475 2047.06 290.475C2050.56 290.475 2053.72 290.152 2056.51 289.508L2058.87 313.681C2052.21 315.257 2045.52 316.045 2038.78 316.045C2027.82 316.045 2019.62 313.144 2014.18 307.343C2008.74 301.541 2006.01 292.48 2006.01 280.161V232.028H1991.29V209.359H2006.01V183.359ZM2103.46 162.945V222.144C2110.12 212.188 2118.97 207.21 2130 207.21C2141.1 207.21 2149.66 211.078 2155.68 218.813C2161.76 226.477 2164.81 238.081 2164.81 253.623V313.789H2132.15V253.408C2132.15 245.673 2130.96 240.229 2128.6 237.078C2126.24 233.926 2122.23 232.351 2116.57 232.351C2110.98 232.351 2106.61 234.141 2103.46 237.722V313.789H2070.69V162.945H2103.46Z" fill="#9DC5BB"/>
<path d="M210.001 244.081V294H186.656V159.652H238.052C253.061 159.652 264.964 163.558 273.761 171.371C282.619 179.183 287.048 189.517 287.048 202.374C287.048 215.538 282.711 225.78 274.038 233.101C265.426 240.421 253.338 244.081 237.775 244.081H210.001ZM210.001 225.35H238.052C246.356 225.35 252.692 223.412 257.06 219.537C261.427 215.6 263.611 209.94 263.611 202.558C263.611 195.3 261.397 189.517 256.967 185.211C252.538 180.844 246.448 178.599 238.698 178.476H210.001V225.35ZM299.874 243.158C299.874 233.377 301.812 224.581 305.687 216.768C309.562 208.895 315.007 202.866 322.019 198.683C329.032 194.439 337.09 192.316 346.194 192.316C359.666 192.316 370.585 196.653 378.951 205.327C387.379 214 391.931 225.503 392.607 239.836L392.7 245.096C392.7 254.938 390.793 263.735 386.979 271.486C383.226 279.236 377.813 285.234 370.739 289.479C363.726 293.723 355.606 295.845 346.379 295.845C332.292 295.845 321.004 291.17 312.515 281.82C304.088 272.408 299.874 259.89 299.874 244.265V243.158ZM322.296 245.096C322.296 255.369 324.418 263.427 328.663 269.271C332.907 275.053 338.813 277.945 346.379 277.945C353.945 277.945 359.82 274.992 364.003 269.087C368.247 263.181 370.37 254.538 370.37 243.158C370.37 233.07 368.186 225.073 363.818 219.167C359.512 213.262 353.638 210.309 346.194 210.309C338.874 210.309 333.061 213.231 328.755 219.075C324.449 224.858 322.296 233.531 322.296 245.096ZM499.366 263.089L515.237 194.162H537.105L509.885 294H491.431L470.023 225.442L448.985 294H430.531L403.219 194.162H425.087L441.235 262.351L461.719 194.162H478.605L499.366 263.089ZM596.067 295.845C581.857 295.845 570.323 291.386 561.465 282.466C552.668 273.485 548.27 261.551 548.27 246.664V243.896C548.27 233.931 550.177 225.042 553.991 217.23C557.866 209.356 563.28 203.235 570.231 198.868C577.182 194.5 584.933 192.316 593.483 192.316C607.078 192.316 617.566 196.653 624.948 205.327C632.391 214 636.113 226.272 636.113 242.143V251.186H570.877C571.553 259.429 574.291 265.949 579.089 270.747C583.949 275.546 590.038 277.945 597.359 277.945C607.632 277.945 615.998 273.792 622.457 265.488L634.544 277.022C630.546 282.989 625.194 287.633 618.489 290.955C611.845 294.215 604.371 295.845 596.067 295.845ZM593.391 210.309C587.24 210.309 582.257 212.462 578.443 216.768C574.691 221.074 572.291 227.072 571.246 234.761H613.968V233.101C613.476 225.596 611.476 219.936 607.97 216.122C604.464 212.247 599.604 210.309 593.391 210.309ZM705.871 214.646C702.918 214.154 699.873 213.908 696.736 213.908C686.463 213.908 679.542 217.845 675.974 225.719V294H653.552V194.162H674.959L675.513 205.327C680.926 196.653 688.431 192.316 698.027 192.316C701.226 192.316 703.871 192.747 705.963 193.608L705.871 214.646ZM762.156 295.845C747.947 295.845 736.413 291.386 727.554 282.466C718.758 273.485 714.36 261.551 714.36 246.664V243.896C714.36 233.931 716.267 225.042 720.08 217.23C723.956 209.356 729.369 203.235 736.32 198.868C743.271 194.5 751.022 192.316 759.573 192.316C773.168 192.316 783.656 196.653 791.038 205.327C798.481 214 802.202 226.272 802.202 242.143V251.186H736.966C737.643 259.429 740.38 265.949 745.178 270.747C750.038 275.546 756.128 277.945 763.448 277.945C773.721 277.945 782.087 273.792 788.546 265.488L800.634 277.022C796.635 282.989 791.284 287.633 784.579 290.955C777.935 294.215 770.461 295.845 762.156 295.845ZM759.481 210.309C753.329 210.309 748.346 212.462 744.532 216.768C740.78 221.074 738.381 227.072 737.335 234.761H780.057V233.101C779.565 225.596 777.566 219.936 774.06 216.122C770.553 212.247 765.694 210.309 759.481 210.309ZM815.49 243.343C815.49 227.964 819.057 215.63 826.193 206.342C833.329 196.991 842.894 192.316 854.89 192.316C865.47 192.316 874.021 196.007 880.541 203.389V152.27H902.963V294H882.664L881.556 283.666C874.851 291.785 865.901 295.845 854.705 295.845C843.017 295.845 833.544 291.14 826.285 281.728C819.088 272.316 815.49 259.521 815.49 243.343ZM837.912 245.28C837.912 255.43 839.849 263.366 843.725 269.087C847.662 274.746 853.229 277.576 860.426 277.576C869.592 277.576 876.297 273.485 880.541 265.303V222.674C876.42 214.677 869.776 210.678 860.611 210.678C853.352 210.678 847.754 213.57 843.817 219.352C839.88 225.073 837.912 233.716 837.912 245.28ZM1061.03 245.096C1061.03 260.598 1057.55 272.931 1050.6 282.097C1043.71 291.263 1034.2 295.845 1022.09 295.845C1010.4 295.845 1001.29 291.632 994.774 283.204L993.667 294H973.367V152.27H995.789V203.758C1002.25 196.13 1010.95 192.316 1021.9 192.316C1034.08 192.316 1043.65 196.838 1050.6 205.88C1057.55 214.923 1061.03 227.564 1061.03 243.804V245.096ZM1038.6 243.158C1038.6 232.332 1036.7 224.212 1032.88 218.798C1029.07 213.385 1023.53 210.678 1016.27 210.678C1006.55 210.678 999.726 214.923 995.789 223.412V264.565C999.787 273.239 1006.68 277.576 1016.46 277.576C1023.47 277.576 1028.88 274.961 1032.7 269.732C1036.51 264.504 1038.48 256.599 1038.6 246.019V243.158ZM1113.71 261.889L1134.01 194.162H1157.91L1118.23 309.133C1112.14 325.926 1101.81 334.323 1087.23 334.323C1083.97 334.323 1080.37 333.769 1076.43 332.662V315.315L1080.68 315.592C1086.34 315.592 1090.58 314.546 1093.41 312.454C1096.3 310.424 1098.58 306.98 1100.24 302.12L1103.47 293.539L1068.41 194.162H1092.58L1113.71 261.889Z" fill="#28262C"/>
</svg>
